<svg xmlns="http://www.w3.org/2000/svg" version="1.1" xmlns:xlink="http://www.w3.org/1999/xlink" xmlns:svgjs="http://svgjs.dev/svgjs" viewBox="0 0 1422 800" opacity="0.85"><defs><linearGradient x1="50%" y1="0%" x2="50%" y2="100%" id="ccchaos-grad"><stop stop-color="hsl(206, 75%, 49%)" stop-opacity="1" offset="0%"></stop><stop stop-color="hsl(331, 90%, 56%)" stop-opacity="1" offset="100%"></stop></linearGradient></defs><g stroke-width="4" stroke="url(#ccchaos-grad)" fill="none" stroke-linecap="round"><path d="M693.83 41.87Q701.76 46.86 709.84 52.26 718.09 58.07 726.52 64.31 735.15 70.96 744.01 77.98 753.1 85.32 762.44 92.94 772.03 100.76 781.89 108.7 792.02 116.68 802.41 124.61 813.07 132.4 823.99 139.97 835.16 147.22 846.57 154.1 858.19 160.53 870.03 166.48 882.05 171.9 894.23 176.8 906.54 181.17 918.95 185.03 931.44 188.43 943.97 191.42 956.52 194.08 969.03 196.5 981.48 198.78 993.84 201.01 1006.06 203.32 1018.12 205.8 1029.98 208.57 1041.61 211.71 1044.42 222.21 1045.9 232.72 1045.98 243.22 1044.66 253.72 1041.99 264.22 1038.08 274.72 1033.08 285.22 1027.2 295.72 1020.67 306.22 1013.75 316.72 1006.73 327.22 999.87 337.72 993.46 348.23 987.75 358.73 982.97 369.23 979.32 379.73 976.93 390.23 975.91 400.73 976.29 411.23 978.06 421.73 981.16 432.23 985.44 442.73 990.75 453.23 996.88 463.73 1003.56 474.23 1010.55 484.73 1017.55 495.23 1024.29 505.74 1030.5 516.24 1035.92 526.74 1040.35 537.24 1043.6 547.74 1034.93 556.6 1025.9 566.26 1016.52 576.57 1006.79 587.38 996.72 598.52 986.34 609.78 975.67 620.98 964.71 631.91 953.51 642.38 942.09 652.22 930.46 661.27 918.67 669.39 906.75 676.49 894.72 682.48 882.62 687.34 870.48 691.08 858.32 693.74 846.2 695.39 834.12 696.16 822.12 696.2 810.22 695.67 798.46 694.78 786.84 693.72 775.4 692.74 764.15 692.03 753.1 691.81 742.26 692.28 731.65 693.62 721.26 695.97 711.11 699.44 701.19 704.12 691.5 710.05 675.27 705.08 659.41 703.1 643.95 704.41 628.61 706.49 613.23 707.66 597.7 707.08 581.76 702.03 565.49 693.71 557.14 687.56 548.64 680.31 540.01 672.02 531.23 662.82 522.3 652.83 513.24 642.21 504.03 631.17 494.69 619.87 485.23 608.54 475.65 597.36 465.97 586.53 456.2 576.23 446.34 566.62 436.42 557.82 426.45 549.94 416.45 543.06 415.91 532.62 415.16 522.18 414.26 511.74 413.22 501.3 412.09 490.86 410.92 480.41 409.75 469.97 408.63 459.53 407.61 449.09 406.72 438.65 406 428.21 405.49 417.77 405.19 407.33 405.13 396.89 405.3 386.45 405.7 376 406.31 365.56 407.11 355.12 408.06 344.68 409.13 334.24 410.28 323.8 411.46 313.36 412.61 302.92 413.71 292.48 414.69 282.03 415.53 271.59 416.18 261.15 416.63 250.71 416.85 240.27 416.83 229.83 421.07 212.04 434.88 200.97 444.1 197.72 453.2 194.85 462.18 192.27 471.05 189.88 479.79 187.56 488.41 185.22 496.92 182.75 505.33 180.06 513.64 177.05 521.86 173.65 530.01 169.81 538.09 165.47 546.14 160.63 554.15 155.27 562.16 149.4 570.17 143.04 578.22 136.26 586.31 129.1 594.47 121.63 602.73 113.93 611.08 106.08 619.57 98.18 628.2 90.3 636.99 82.54 645.96 74.96 655.12 67.64 664.47 60.63 674.04 53.98 688.83 44.8 693.83 41.87" stroke-dasharray="3 4" transform="rotate(0, 711, 400)" opacity="1.00"></path><path d="M691.48 55.79Q699.52 60.55 707.74 65.7 716.14 71.26 724.74 77.22 733.55 83.57 742.58 90.28 751.84 97.31 761.33 104.62 771.06 112.14 781.02 119.81 791.22 127.55 801.65 135.27 812.29 142.9 823.15 150.35 834.2 157.56 845.44 164.44 856.84 170.95 868.39 177.01 880.06 182.61 891.83 187.7 903.67 192.3 915.56 196.39 927.47 200.01 939.36 203.19 951.22 205.99 963 208.47 974.68 210.72 986.24 212.83 997.63 214.88 1008.83 216.97 1026.11 225.52 1033.01 241.94 1032.34 252.06 1030.42 262.19 1027.33 272.31 1023.18 282.43 1018.12 292.56 1012.34 302.68 1006.05 312.81 999.48 322.93 992.88 333.05 986.48 343.18 980.52 353.3 975.23 363.42 970.79 373.55 967.37 383.67 965.09 393.79 964.05 403.92 964.27 414.04 965.75 424.16 968.44 434.29 972.23 444.41 976.99 454.54 982.54 464.66 988.68 474.78 995.17 484.91 1001.79 495.03 1008.29 505.15 1014.43 515.28 1019.99 525.4 1024.75 535.53 1028.54 545.65 1020.65 555.04 1012.43 564.99 1003.9 575.35 995.04 585.97 985.88 596.67 976.42 607.3 966.66 617.67 956.64 627.62 946.35 637 935.84 645.67 925.1 653.51 914.18 660.43 903.09 666.37 891.86 671.29 880.52 675.18 869.08 678.08 857.59 680.05 846.06 681.17 834.53 681.57 823.01 681.38 811.54 680.77 800.14 679.92 788.83 679 777.63 678.21 766.56 677.74 755.63 677.77 744.87 678.46 734.29 679.97 723.89 682.4 713.68 685.87 703.68 690.44 693.87 696.13 679.03 691.19 664.4 688.99 649.92 689.92 635.41 691.68 620.66 692.94 605.67 692.81 590.16 688.95 574.28 682.23 566.1 677.08 557.79 670.91 549.33 663.75 540.74 655.68 532 646.79 523.14 637.22 514.15 627.09 505.04 616.58 495.82 605.85 486.5 595.08 477.09 584.43 467.6 574.08 458.05 564.18 448.45 554.88 438.8 546.28 429.14 538.5 428.43 528.46 427.53 518.42 426.49 508.39 425.34 498.35 424.11 488.32 422.87 478.28 421.65 468.25 420.5 458.21 419.45 448.17 418.56 438.14 417.85 428.1 417.34 418.07 417.07 408.03 417.02 398 417.22 387.96 417.65 377.93 418.29 367.89 419.12 357.86 420.12 347.82 421.24 337.78 422.44 327.75 423.68 317.71 424.91 307.68 426.1 297.64 427.18 287.61 428.13 277.57 428.91 267.54 429.49 257.5 429.85 247.47 429.98 237.43 434.25 220.69 447.66 211.04 456.57 208.44 465.38 206.09 474.08 203.9 482.66 201.77 499.42 197.23 515.83 192.06 523.85 188.91 531.77 185.35 539.6 181.33 547.35 176.83 555.04 171.84 562.68 166.36 570.28 160.41 577.86 154.03 585.44 147.27 593.02 140.18 600.64 132.83 608.31 125.3 616.05 117.66 623.87 109.99 631.8 102.38 639.84 94.89 648.02 87.59 656.36 80.55 664.86 73.82 673.54 67.43 686.95 58.6 691.48 55.79" stroke-dasharray="3 0" transform="rotate(4.391304347826087, 711, 400)" opacity="0.82"></path><path d="M690.51 69.7Q698.69 74.24 707.05 79.15 715.6 84.45 724.35 90.12 733.29 96.17 742.44 102.57 751.8 109.28 761.37 116.27 771.14 123.48 781.1 130.86 791.27 138.32 801.61 145.81 812.13 153.25 822.8 160.57 833.63 167.69 844.58 174.54 855.63 181.08 866.78 187.24 877.99 192.97 889.25 198.26 900.54 203.07 911.81 207.4 923.06 211.27 934.26 214.69 945.37 217.69 956.38 220.34 967.26 222.67 977.98 224.78 988.53 226.73 998.88 228.6 1014.42 236.37 1019.65 252.01 1018.33 261.76 1015.92 271.52 1012.5 281.28 1008.19 291.03 1003.13 300.79 997.5 310.54 991.47 320.3 985.27 330.06 979.08 339.81 973.14 349.57 967.62 359.32 962.72 369.08 958.61 378.84 955.42 388.59 953.25 398.35 952.19 408.1 952.27 417.86 953.49 427.62 955.8 437.37 959.12 447.13 963.36 456.89 968.35 466.64 973.94 476.4 979.93 486.15 986.13 495.91 992.32 505.67 998.3 515.42 1003.87 525.18 1008.83 534.94 1013.03 544.69 1005.84 554.29 998.38 564.21 990.63 574.32 982.59 584.47 974.27 594.51 965.68 604.3 956.81 613.69 947.68 622.56 938.31 630.79 928.69 638.27 918.86 644.92 908.82 650.7 898.59 655.56 888.2 659.49 877.67 662.52 867.01 664.69 856.26 666.08 845.42 666.77 834.54 666.88 823.62 666.54 812.69 665.9 801.78 665.12 790.9 664.36 780.07 663.78 769.32 663.55 758.66 663.81 748.11 664.7 737.69 666.35 727.4 668.86 717.26 672.31 698.93 677.93 683.74 676.91 670.09 675.23 656.39 675.34 642.44 676.9 628.26 678.36 613.57 678.09 598.52 675.97 590.77 673.55 582.89 670.25 574.87 666.03 566.71 660.87 558.43 654.79 550.01 647.84 541.47 640.07 532.8 631.58 524.03 622.47 515.15 612.87 506.18 602.92 497.12 592.76 487.99 582.54 478.8 572.4 469.55 562.51 460.27 552.98 450.97 543.95 441.65 535.53 440.77 525.88 439.73 516.23 438.57 506.59 437.32 496.94 436.02 487.29 434.73 477.64 433.47 468 432.3 458.35 431.26 448.7 430.37 439.05 429.68 429.41 429.19 419.76 428.94 410.11 428.92 400.47 429.15 390.82 429.6 381.17 430.27 371.52 431.13 361.88 432.15 352.23 433.3 342.58 434.55 332.94 435.84 323.29 437.14 313.64 438.4 303.99 439.58 294.35 440.64 284.7 441.54 275.05 442.26 265.41 442.76 255.76 443.04 246.11 447.38 230.33 460.4 221.86 477.49 217.78 494.27 213.83 510.5 209.26 526.4 203.87 541.75 196.57 556.81 187.92 564.2 182.79 571.51 177.21 578.76 171.21 585.96 164.82 593.13 158.11 600.29 151.12 607.44 143.92 614.6 136.58 621.79 129.16 629.03 121.75 636.33 114.41 643.71 107.21 651.19 100.21 658.77 93.45 666.48 87 674.34 80.87 686.43 72.4 690.51 69.7" stroke-dasharray="0 3" transform="rotate(8.782608695652174, 711, 400)" opacity="0.83"></path><path d="M691 83.63Q699.3 87.95 707.77 92.61 716.42 97.64 725.25 103.03 734.26 108.77 743.45 114.85 752.82 121.24 762.36 127.9 772.06 134.78 781.92 141.84 791.93 149.02 802.08 156.25 812.35 163.47 822.73 170.61 833.2 177.6 843.75 184.4 854.35 190.92 865 197.13 875.67 202.98 886.33 208.42 896.97 213.44 907.57 218.01 918.1 222.14 928.55 225.82 938.89 229.09 949.1 231.96 959.16 234.48 969.05 236.7 978.75 238.69 988.26 240.51 1002.13 247.78 1005.84 262.72 1003.97 272.12 1001.16 281.51 997.5 290.9 993.11 300.29 988.11 309.68 982.67 319.07 976.94 328.46 971.11 337.85 965.35 347.24 959.84 356.64 954.75 366.03 950.24 375.42 946.43 384.81 943.46 394.2 941.42 403.59 940.35 412.98 940.3 422.37 941.28 431.76 943.24 441.16 946.12 450.55 949.85 459.94 954.31 469.33 959.35 478.72 964.83 488.11 970.57 497.5 976.4 506.89 982.15 516.28 987.63 525.67 992.67 535.06 997.13 544.45 990.58 553.94 983.79 563.53 976.76 573.12 969.48 582.57 961.95 591.76 954.17 600.57 946.14 608.89 937.87 616.61 929.36 623.67 920.63 629.98 911.68 635.5 902.52 640.2 893.17 644.07 883.64 647.13 873.95 649.41 864.11 650.96 854.15 651.87 844.08 652.22 833.92 652.12 823.68 651.7 813.4 651.09 803.08 650.41 792.75 649.82 782.43 649.46 772.13 649.45 761.87 649.92 751.66 651 741.53 652.78 731.49 655.34 721.54 658.76 703.65 664.17 689.17 663.08 676.21 661.19 663.08 660.95 649.56 662.22 635.74 663.56 621.34 663.64 606.57 662.23 591.14 657.42 575.34 650.21 567.22 645.14 558.98 639.26 550.63 632.59 542.18 625.2 533.63 617.16 524.99 608.57 516.27 599.52 507.49 590.14 498.65 580.55 489.76 570.88 480.84 561.25 471.89 551.79 462.93 542.62 453.96 533.86 452.93 524.59 451.76 515.32 450.5 506.05 449.17 496.78 447.82 487.51 446.49 478.24 445.22 468.97 444.06 459.7 443.03 450.43 442.16 441.16 441.49 431.89 441.04 422.62 440.82 413.35 440.83 404.08 441.07 394.82 441.55 385.55 442.23 376.28 443.11 367.01 444.16 357.74 445.34 348.47 446.61 339.2 447.94 329.93 449.29 320.66 450.62 311.39 451.88 302.12 453.03 292.85 454.05 283.58 454.9 274.31 455.55 265.04 455.98 255.77 460.41 240.83 473.06 233.29 489.59 229.69 505.83 225.92 521.56 221.14 536.96 215.41 551.83 207.71 566.39 198.71 573.5 193.46 580.53 187.8 587.49 181.78 594.37 175.42 601.21 168.79 607.99 161.92 614.75 154.9 621.49 147.77 628.22 140.6 634.96 133.46 641.72 126.41 648.53 119.51 655.39 112.8 662.31 106.34 669.33 100.17 676.43 94.32 687.33 86.22 691 83.63" stroke-dasharray="2 4" transform="rotate(13.17391304347826, 711, 400)" opacity="0.55"></path><path d="M692.91 97.55Q701.28 101.64 709.79 106.06 718.47 110.82 727.3 115.93 736.28 121.36 745.4 127.12 754.67 133.17 764.07 139.49 773.59 146.04 783.23 152.77 792.97 159.64 802.8 166.58 812.7 173.55 822.67 180.49 832.69 187.32 842.74 194.01 852.8 200.49 862.86 206.71 872.9 212.62 882.9 218.19 892.84 223.38 902.71 228.17 912.49 232.55 922.16 236.51 931.7 240.05 941.1 243.2 950.34 245.98 959.4 248.42 968.28 250.56 976.96 252.46 989.26 259.49 991.63 273.82 989.31 282.85 986.2 291.87 982.39 300.89 977.98 309.92 973.1 318.94 967.88 327.96 962.47 336.98 957.02 346.01 951.69 355.03 946.6 364.05 941.92 373.08 937.78 382.1 934.27 391.12 931.52 400.14 929.58 409.17 928.51 418.19 928.36 427.21 929.11 436.24 930.74 445.26 933.22 454.28 936.48 463.31 940.41 472.33 944.92 481.35 949.88 490.38 955.15 499.4 960.58 508.42 966.02 517.45 971.32 526.47 976.33 535.49 980.92 544.52 974.94 553.59 968.77 562.6 962.38 571.44 955.79 580 948.98 588.2 941.95 595.93 934.7 603.11 927.23 609.68 919.55 615.59 911.66 620.78 903.56 625.24 895.26 628.97 886.77 631.96 878.1 634.25 869.26 635.89 860.27 636.94 851.13 637.47 841.86 637.57 832.48 637.34 823 636.89 813.43 636.34 803.8 635.8 794.12 635.39 784.4 635.24 774.66 635.45 764.92 636.12 755.18 637.36 745.48 639.25 735.81 641.85 726.2 645.22 708.88 650.42 694.98 649.29 682.49 647.19 669.75 646.65 656.52 647.61 642.95 648.77 628.78 649.1 614.24 648.26 599.08 644.62 583.57 638.93 575.63 634.8 567.58 629.93 559.43 624.32 551.2 618.01 542.89 611.06 534.5 603.52 526.06 595.47 517.56 587.01 509.03 578.22 500.46 569.21 491.87 560.09 483.26 550.96 474.65 541.95 466.05 533.14 464.88 524.24 463.61 515.34 462.26 506.44 460.88 497.55 459.5 488.65 458.16 479.75 456.9 470.85 455.75 461.95 454.75 453.05 453.92 444.16 453.29 435.26 452.88 426.36 452.69 417.46 452.73 408.57 453 399.67 453.49 390.77 454.19 381.87 455.08 372.97 456.14 364.08 457.33 355.18 458.62 346.28 459.98 337.38 461.36 328.48 462.74 319.59 464.06 310.69 465.3 301.79 466.43 292.89 467.39 284 468.19 275.1 468.78 266.2 473.31 252.02 485.59 245.13 501.56 241.73 517.27 237.89 532.51 232.77 547.44 226.62 561.86 218.51 575.97 209.19 582.86 203.84 589.65 198.14 596.35 192.12 602.97 185.83 609.52 179.3 616.01 172.59 622.44 165.77 628.82 158.87 635.18 151.97 641.51 145.12 647.83 138.37 654.15 131.77 660.49 125.37 666.87 119.22 686.35 102.73 692.91 97.55" stroke-dasharray="2 3" transform="rotate(17.565217391304348, 711, 400)" opacity="0.50"></path><path d="M696.11 111.47Q712.92 119.51 730.25 128.82 748.03 139.38 766.23 151.07 784.75 163.66 803.51 176.83 822.41 190.21 841.34 203.38 860.18 215.94 878.82 227.52 897.14 237.82 915.02 246.65 932.35 253.93 949.04 259.72 965.01 264.22 980.19 267.73 977.05 285.02 971.06 302.31 962.82 319.61 953.15 336.9 943.01 354.2 933.42 371.49 925.34 388.79 919.56 406.08 916.68 423.38 916.98 440.68 920.43 457.97 926.68 475.27 935.11 492.56 944.88 509.86 955.01 527.15 964.49 544.45 953.38 561.06 941.6 576.53 929.1 590.25 915.84 601.74 901.81 610.7 887.04 617.06 871.55 620.94 855.4 622.69 838.65 622.87 821.39 622.15 803.71 621.3 785.71 621.14 767.5 622.41 749.19 625.77 730.87 631.69 712.64 640.45 700.83 635.5 688.69 633.01 676.14 632.41 663.16 633.02 649.72 634.03 635.8 634.65 621.42 634.1 606.59 631.74 591.35 627.08 575.75 619.85 559.84 609.98 543.68 597.62 527.34 583.16 510.89 567.11 494.4 550.15 477.93 532.98 475.3 515.93 472.48 498.88 469.76 481.82 467.42 464.77 465.68 447.71 464.72 430.66 464.64 413.61 465.44 396.55 467.04 379.5 469.29 362.45 471.96 345.39 474.78 328.34 477.47 311.29 479.76 294.23 481.43 277.18 482.3 260.13 497.97 257.17 513.41 253.8 528.54 249.59 543.35 244.2 557.78 237.4 571.82 229.1 585.47 219.32 598.73 208.21 611.61 196.03 624.17 183.13 636.44 169.89 648.5 156.72 660.4 144.01 672.25 132.07 690.11 116.32 696.11 111.47" stroke-dasharray="1 2" transform="rotate(21.956521739130434, 711, 400)" opacity="0.35"></path><path d="M700.36 125.39Q716.9 132.98 733.82 141.73 751.06 151.65 768.54 162.64 786.21 174.51 803.96 187.01 821.72 199.8 839.37 212.55 856.83 224.88 874 236.45 890.78 246.97 907.08 256.22 922.84 264.06 937.97 270.49 952.42 275.57 966.16 279.51 962.14 296.03 955.78 312.55 947.65 329.07 938.47 345.59 929.06 362.11 920.28 378.63 912.91 395.15 907.61 411.67 904.86 428.18 904.9 444.7 907.73 461.22 913.1 477.74 920.53 494.26 929.34 510.78 938.74 527.29 947.91 543.81 937.72 558.6 927 571.95 915.69 583.43 903.75 592.74 891.16 599.76 877.91 604.51 864 607.22 849.47 608.26 834.36 608.14 818.73 607.48 802.63 606.92 786.14 607.15 769.35 608.77 752.33 612.31 735.18 618.16 717.98 626.53 706.4 621.73 694.42 619.11 682.02 618.24 669.18 618.53 655.89 619.33 642.16 619.96 628.02 619.76 613.5 618.16 598.63 614.69 583.47 609.04 568.07 601.05 552.49 590.77 536.8 578.4 521.04 564.31 505.29 548.96 489.59 532.94 486.82 516.64 483.97 500.34 481.3 484.04 479.05 467.74 477.43 451.44 476.57 435.15 476.56 418.85 477.39 402.55 478.99 386.25 481.23 369.95 483.89 353.65 486.73 337.35 489.51 321.05 491.98 304.75 493.9 288.45 495.12 272.15 510.17 269.2 525.01 265.56 539.61 260.9 553.92 255.01 567.9 247.74 581.52 239.08 594.78 229.11 607.66 218.02 620.17 206.06 632.33 193.55 644.17 180.84 655.73 168.3 667.06 156.23 678.23 144.93 694.83 130 700.36 125.39" stroke-dasharray="1 1" transform="rotate(26.34782608695652, 711, 400)" opacity="0.44"></path><path d="M705.36 139.31Q721.4 146.43 737.68 154.63 754.14 163.91 770.72 174.2 787.33 185.34 803.92 197.12 820.39 209.27 836.67 221.51 852.68 233.5 868.34 244.95 883.58 255.58 898.34 265.14 912.57 273.5 926.21 280.55 939.24 286.3 951.63 290.85 946.96 306.56 940.4 322.27 932.49 337.98 923.86 353.69 915.2 369.41 907.21 385.12 900.51 400.83 895.66 416.54 893.04 432.25 892.86 447.96 895.14 463.67 899.68 479.38 906.13 495.1 913.98 510.81 922.58 526.52 931.26 542.23 921.88 554.97 912.09 566.12 901.85 575.43 891.09 582.73 879.79 588.02 867.93 591.43 855.5 593.21 842.51 593.73 828.98 593.45 814.94 592.92 800.43 592.68 785.5 593.28 770.21 595.22 754.62 598.91 738.8 604.65 722.82 612.61 711.35 607.97 699.46 605.27 687.16 604.15 674.45 604.14 661.33 604.7 647.83 605.28 633.98 605.32 619.81 604.31 605.37 601.82 590.71 597.54 575.89 591.26 560.94 582.93 545.93 572.63 530.91 560.57 515.93 547.08 501.04 532.59 498.19 517.06 495.36 501.54 492.78 486.01 490.66 470.48 489.17 454.96 488.42 439.43 488.48 423.9 489.34 408.38 490.93 392.85 493.13 377.33 495.76 361.8 498.61 346.27 501.44 330.75 504.04 315.22 506.19 299.7 507.73 284.17 522.13 280.96 536.37 276.87 550.41 271.69 564.21 265.27 577.72 257.56 590.93 248.62 603.8 238.55 616.32 227.56 628.5 215.9 640.32 203.85 651.81 191.72 662.98 179.82 673.88 168.42 684.54 157.77 700.19 143.67 705.36 139.31" stroke-dasharray="2 4" transform="rotate(30.73913043478261, 711, 400)" opacity="0.29"></path><path d="M710.77 153.24Q726.08 159.9 741.5 167.55 756.99 176.19 772.47 185.76 787.88 196.15 803.17 207.19 818.27 218.65 833.11 230.3 847.64 241.86 861.79 253.07 875.53 263.67 888.8 273.43 901.57 282.18 913.82 289.79 925.52 296.22 936.68 301.47 931.54 316.34 924.95 331.21 917.37 346.08 909.33 360.95 901.41 375.82 894.18 390.69 888.13 405.56 883.71 420.43 881.23 435.3 880.86 450.17 882.63 465.04 886.42 479.91 891.95 494.78 898.83 509.65 906.58 524.52 914.64 539.39 905.96 549.97 896.98 558.97 887.66 566.24 877.95 571.75 867.8 575.57 857.2 577.88 846.12 578.95 834.55 579.13 822.51 578.82 810 578.49 797.04 578.58 783.66 579.53 769.91 581.74 755.82 585.53 741.44 591.14 726.83 598.68 715.4 594.22 703.59 591.47 691.4 590.13 678.84 589.83 665.94 590.15 652.72 590.62 639.23 590.79 625.49 590.22 611.56 588.52 597.47 585.39 583.28 580.61 569.02 574.06 554.75 565.73 540.51 555.72 526.34 544.22 512.28 531.52 509.42 516.8 506.66 502.07 504.22 487.34 502.25 472.62 500.91 457.89 500.28 443.16 500.41 428.44 501.29 413.71 502.86 398.99 505.01 384.26 507.58 369.53 510.39 354.81 513.25 340.08 515.94 325.36 518.29 310.63 520.11 295.91 533.84 292.24 547.46 287.59 560.91 281.84 574.17 274.92 587.2 266.86 599.96 257.72 612.44 247.66 624.6 236.87 636.45 225.58 647.97 214.05 659.15 202.55 670.02 191.32 680.59 180.61 690.88 170.61 705.85 157.34 710.77 153.24" stroke-dasharray="3 3" transform="rotate(35.130434782608695, 711, 400)" opacity="0.70"></path><path d="M716.19 167.15Q730.56 173.36 744.94 180.47 759.28 188.47 773.53 197.33 787.63 206.96 801.55 217.22 815.22 227.95 828.6 238.94 841.66 249.97 854.35 260.82 866.63 271.25 878.49 281.06 889.9 290.07 900.85 298.14 911.33 305.18 921.35 311.14 915.96 325.14 909.47 339.13 902.3 353.13 894.89 367.12 887.71 381.12 881.2 395.11 875.77 409.1 871.76 423.1 869.42 437.09 868.9 451.09 870.22 465.08 873.31 479.08 877.98 493.07 883.92 507.06 890.78 521.06 898.12 535.05 890.04 543.51 881.77 550.48 873.26 555.93 864.46 559.9 855.33 562.51 845.84 563.98 835.97 564.54 825.7 564.54 815.02 564.3 803.94 564.21 792.45 564.64 780.58 565.91 768.34 568.35 755.76 572.21 742.87 577.64 729.7 584.77 718.34 580.49 706.63 577.71 694.6 576.19 682.27 575.63 669.67 575.7 656.82 576.02 643.77 576.23 630.55 575.95 617.2 574.87 603.76 572.68 590.27 569.17 576.76 564.19 563.28 557.67 549.87 549.63 536.54 540.15 523.34 529.41 520.53 515.51 517.9 501.61 515.62 487.72 513.84 473.82 512.65 459.92 512.14 446.03 512.34 432.13 513.24 418.23 514.78 404.33 516.86 390.44 519.35 376.54 522.1 362.64 524.94 348.75 527.69 334.85 530.18 320.95 532.24 307.05 545.28 302.8 558.24 297.55 571.07 291.26 583.76 283.92 596.27 275.59 608.56 266.38 620.61 256.43 632.4 245.94 643.9 235.1 655.12 224.15 666.03 213.31 676.63 202.79 686.94 192.78 696.95 183.43 711.45 171.01 716.19 167.15" stroke-dasharray="4 2" transform="rotate(39.52173913043478, 711, 400)" opacity="0.37"></path><path d="M721.24 181.07Q734.5 186.83 747.69 193.39 760.76 200.76 773.68 208.9 786.41 217.77 798.92 227.24 811.16 237.19 823.11 247.46 834.73 257.88 846.01 268.25 856.92 278.37 867.46 288.08 877.6 297.19 887.36 305.57 896.73 313.1 905.72 319.7 900.24 332.79 893.99 345.87 887.31 358.95 880.55 372.04 874.09 385.12 868.28 398.21 863.43 411.29 859.81 424.38 857.62 437.46 856.97 450.55 857.9 463.64 860.36 476.72 864.22 489.81 869.26 502.89 875.22 515.98 881.76 529.06 874.22 535.52 866.56 540.68 850.62 546.77 833.99 549.81 825.19 550.07 816.07 550.01 806.63 549.93 796.85 550.11 786.73 550.85 776.27 552.42 765.48 555.05 754.37 558.91 742.95 564.16 731.25 570.85 720.01 566.78 708.49 564 696.71 562.32 684.71 561.53 672.51 561.35 660.13 561.5 647.62 561.67 635.01 561.58 622.33 560.93 609.61 559.48 596.88 557.01 584.19 553.38 571.55 548.46 559 542.23 546.55 534.69 534.24 525.93 531.54 512.89 529.09 499.86 527.01 486.82 525.42 473.79 524.4 460.75 524.02 447.72 524.29 434.68 525.19 421.65 526.68 408.62 528.68 395.58 531.08 382.55 533.74 369.51 536.53 356.48 539.28 343.45 541.86 330.41 544.12 317.38 556.43 312.49 568.69 306.67 580.88 299.91 592.95 292.25 604.89 283.78 616.67 274.61 628.25 264.89 639.62 254.79 650.76 244.49 661.64 234.18 672.26 224.03 682.61 214.24 692.68 204.93 702.47 196.25 716.62 184.67 721.24 181.07" stroke-dasharray="1 4" transform="rotate(43.91304347826087, 711, 400)" opacity="0.78"></path><path d="M725.57 195Q737.59 200.31 749.49 206.33 761.22 213.07 772.77 220.51 784.11 228.6 795.21 237.27 806.05 246.41 816.61 255.91 826.87 265.63 836.83 275.41 846.46 285.1 855.77 294.53 864.76 303.57 873.43 312.08 881.79 319.93 889.85 327.03 884.46 339.18 878.55 351.33 872.41 363.47 866.31 375.62 860.56 387.77 855.41 399.91 851.11 412.06 847.86 424.21 845.82 436.35 845.08 448.5 845.67 460.65 847.57 472.8 850.68 484.94 854.87 497.09 859.25 517.66 851.46 529.69 836.85 533.67 821.79 535.49 805.7 535.66 788.86 536.19 779.98 537.23 770.81 539.05 761.36 541.81 751.63 545.65 741.63 550.67 731.36 556.92 720.35 553.07 709.13 550.32 697.73 548.53 686.17 547.53 674.49 547.12 662.7 547.07 650.83 547.15 638.92 547.13 626.99 546.77 615.07 545.86 603.18 544.22 591.35 541.68 579.6 538.14 567.94 533.51 556.41 527.76 545.01 520.9 542.48 508.76 540.24 496.62 538.39 484.48 537.01 472.34 536.17 460.2 535.91 448.06 536.24 435.92 537.14 423.78 538.58 411.64 540.48 399.5 542.76 387.36 545.31 375.22 548 363.08 550.72 350.94 553.34 338.8 555.72 326.66 567.28 321.18 578.81 314.87 590.3 307.76 601.72 299.92 613.04 291.45 624.25 282.46 635.31 273.08 646.21 263.47 656.92 253.77 667.44 244.14 677.73 234.73 687.79 225.67 697.61 217.09 707.18 209.07 721.04 198.34 725.57 195" stroke-dasharray="2 4" transform="rotate(48.30434782608696, 711, 400)" opacity="0.85"></path><path d="M728.86 208.91Q739.57 213.78 750.12 219.27 760.5 225.39 770.68 232.13 780.65 239.45 790.4 247.31 799.9 255.62 809.15 264.31 818.14 273.26 826.87 282.35 835.33 291.47 843.53 300.48 851.47 309.27 859.16 317.7 866.61 325.67 873.83 333.09 868.66 344.28 863.18 355.47 857.62 366.65 852.19 377.84 847.11 389.03 842.59 400.22 838.81 411.4 835.91 422.59 834.02 433.78 833.21 444.97 833.52 456.16 834.92 467.34 837.37 478.53 840.76 489.72 844.08 508.1 836.55 517.66 823.12 520.09 809.42 521.13 795.05 521.48 780.15 522.48 764.23 526.22 747.64 532.43 738.95 537.2 730.03 543.01 719.39 539.38 708.61 536.68 697.72 534.82 686.74 533.65 675.69 533.02 664.6 532.77 653.48 532.73 642.36 532.69 631.27 532.49 620.21 531.96 609.21 530.92 598.29 529.24 587.47 526.81 576.75 523.54 566.15 519.35 555.68 514.23 553.39 503.02 551.39 491.8 549.78 480.58 548.62 469.36 547.96 458.15 547.81 446.93 548.2 435.71 549.09 424.49 550.46 413.27 552.26 402.06 554.4 390.84 556.81 379.62 559.38 368.4 562.02 357.18 564.62 345.96 567.07 334.75 577.84 328.76 588.6 322.09 599.35 314.79 610.06 306.94 620.72 298.61 631.29 289.94 641.77 281.02 652.13 271.98 662.36 262.95 672.43 254.05 682.33 245.4 692.05 237.09 701.57 229.23 710.88 221.88 724.42 212 728.86 208.91" stroke-dasharray="2 3" transform="rotate(52.69565217391304, 711, 400)" opacity="0.67"></path><path d="M730.88 222.83Q740.26 227.26 749.48 232.23 758.52 237.73 767.38 243.78 776.04 250.35 784.5 257.39 792.75 264.87 800.79 272.71 808.62 280.83 816.23 289.16 823.63 297.59 830.83 306.04 837.82 314.39 844.63 322.55 851.26 330.43 857.72 337.93 852.89 348.14 847.91 358.35 842.95 368.56 838.17 378.78 833.75 388.99 829.82 399.2 826.52 409.41 823.96 419.62 822.23 429.83 821.38 440.04 821.44 450.26 822.42 460.47 824.27 470.68 826.94 480.89 822.49 501.48 809.55 506.32 796.99 506.82 784.2 507.35 770.84 509.24 757.06 512.69 742.47 519.66 727.34 529.09 717.23 525.7 707.05 523.09 696.81 521.18 686.54 519.87 676.25 519.06 665.95 518.61 655.68 518.41 645.44 518.3 635.24 518.16 625.11 517.84 615.06 517.21 605.09 516.17 595.23 514.59 585.47 512.4 575.83 509.52 566.3 505.91 564.27 495.63 562.55 485.36 561.2 475.09 560.26 464.82 559.76 454.55 559.73 444.28 560.16 434.01 561.04 423.73 562.34 413.46 564.01 403.19 566.01 392.92 568.25 382.65 570.67 372.38 573.19 362.1 575.71 351.83 578.16 341.56 588.11 335.24 598.07 328.39 608.03 321.08 617.99 313.37 627.91 305.35 637.8 297.11 647.62 288.75 657.37 280.38 667.03 272.07 676.58 263.94 686.01 256.06 695.3 248.52 704.44 241.37 713.43 234.69 726.56 225.66 730.88 222.83" stroke-dasharray="4 1" transform="rotate(57.086956521739125, 711, 400)" opacity="0.96"></path><path d="M731.49 236.76Q739.57 240.75 747.5 245.2 755.28 250.11 762.89 255.48 770.33 261.3 777.61 267.54 784.71 274.16 791.65 281.14 798.42 288.4 805.03 295.89 811.48 303.55 817.77 311.3 823.92 319.06 829.94 326.75 836.51 342.6 832.76 360.11 828.42 369.34 824.29 378.56 820.48 387.79 817.1 397.02 814.25 406.25 812.01 415.47 810.43 424.7 809.57 433.93 809.44 443.15 810.05 452.38 811.38 461.61 813.4 470.84 808.34 488.56 796.22 492.18 784.76 492.73 773.19 493.6 761.33 495.94 749.2 499.7 736.53 506.42 723.49 515.16 714.07 512.03 704.63 509.53 695.18 507.62 685.73 506.21 676.31 505.24 666.91 504.61 657.56 504.24 648.26 504.02 639.03 503.85 629.88 503.62 620.8 503.24 611.82 502.62 602.93 501.66 594.15 500.28 580.33 492.57 573.75 477.41 572.65 468.1 571.93 458.79 571.6 449.48 571.67 440.17 572.14 430.86 572.99 421.55 574.21 412.24 575.75 402.94 577.58 393.63 579.64 384.32 581.88 375.01 584.23 365.7 586.64 356.4 589.02 347.09 598.11 340.64 607.23 333.81 616.37 326.67 625.51 319.27 634.66 311.7 643.79 304.03 652.89 296.33 661.95 288.68 670.95 281.15 679.89 273.81 688.75 266.72 697.53 259.94 706.2 253.52 714.75 247.5 727.34 239.33 731.49 236.76" stroke-dasharray="2 3" transform="rotate(61.47826086956522, 711, 400)" opacity="0.85"></path><path d="M730.64 250.67Q744.23 258.18 757.29 267.22 769.83 277.75 781.86 289.64 793.4 302.63 804.49 316.38 815.18 330.47 825.54 344.45 817.77 360.94 810.52 377.43 804.44 393.92 800.06 410.41 797.79 426.9 797.82 443.39 800.16 459.87 804.59 476.36 793.84 477.48 783.27 478.1 772.8 478.8 762.33 480.15 751.76 482.67 741.03 486.82 730.05 492.95 718.75 501.25 701.6 496.02 684.54 492.67 667.64 490.79 650.98 489.89 634.6 489.41 618.56 488.76 602.87 487.38 587.56 484.78 585 468.11 583.65 451.44 583.63 434.77 584.94 418.09 587.47 401.42 590.99 384.74 595.18 368.07 599.67 351.4 616.11 338.44 632.68 324.75 649.3 310.77 665.9 296.93 682.42 283.68 698.76 271.38 714.86 260.31 730.64 250.67 730.64 250.67 730.64 250.67" stroke-dasharray="1 2" transform="rotate(65.86956521739131, 711, 400)" opacity="0.81"></path><path d="M728.4 264.6Q739.77 271.19 750.75 279.01 761.35 288.07 771.58 298.27 781.48 309.46 791.09 321.43 800.44 333.91 809.6 346.57 802.96 361.11 796.89 375.64 791.82 390.18 788.11 404.71 786.03 419.25 785.72 433.78 783.84 455.94 770.79 464.24 761.24 465.27 751.77 467.03 742.32 469.87 732.83 474.07 723.22 479.85 713.46 487.32 698.24 482.54 683.18 479.24 668.33 477.16 653.73 475.98 639.4 475.31 625.38 474.76 611.68 473.93 598.29 472.44 596.34 457.71 595.42 442.99 595.61 428.26 596.89 413.54 599.18 398.82 602.3 384.09 606.04 369.37 610.13 354.65 624.76 342.45 639.54 329.92 654.4 317.39 669.32 305.18 684.23 293.58 699.09 282.84 721.11 268.87 728.4 264.6" stroke-dasharray="2 2" transform="rotate(70.26086956521739, 711, 400)" opacity="0.77"></path><path d="M724.92 278.52Q734.32 284.21 743.45 290.86 752.33 298.49 760.98 307.06 769.42 316.46 777.69 326.59 785.82 337.27 793.85 348.32 788.34 360.92 783.38 373.53 779.25 386.13 776.16 398.74 774.29 411.34 773.73 423.95 771.08 443.2 758.84 450.76 750.21 452.16 741.7 454.27 733.27 457.31 724.86 461.44 716.46 466.78 708 473.4 694.86 469.1 681.9 465.93 669.16 463.73 656.65 462.3 644.39 461.41 632.38 460.78 620.64 460.17 609.15 459.31 607.78 446.53 607.25 433.75 607.62 420.96 608.84 408.18 610.87 395.4 613.58 382.62 616.83 369.84 620.44 357.06 633.22 345.99 646.14 334.9 659.18 323.98 672.3 313.47 685.47 303.53 698.65 294.32 718.37 282.24 724.92 278.52" stroke-dasharray="4 2" transform="rotate(74.65217391304347, 711, 400)" opacity="0.31"></path><path d="M720.46 292.43Q728.13 297.24 735.65 302.78 743.01 309.05 750.25 316.03 757.38 323.7 764.42 331.97 771.4 340.77 778.35 349.99 773.94 360.7 770.01 371.42 766.72 382.13 764.21 392.84 762.57 403.55 761.86 414.26 758.73 430.78 747.5 437.82 732.3 442.27 717.41 448.92 710.07 453.74 702.75 459.48 691.76 455.7 680.95 452.74 670.33 450.52 659.9 448.92 649.68 447.8 639.65 447.02 624.58 440.67 619.16 424.07 619.65 413.2 620.79 402.34 622.55 391.48 624.84 380.61 627.58 369.75 630.65 358.88 641.55 349.28 652.58 339.81 663.72 330.62 674.96 321.82 686.27 313.53 697.64 305.82 714.75 295.61 720.46 292.43" stroke-dasharray="3 3" transform="rotate(79.04347826086956, 711, 400)" opacity="0.42"></path><path d="M715.31 306.36Q727.55 315.03 739.57 325.26 745.49 331.26 751.38 337.74 758.51 352.73 756.77 369.66 754.25 378.51 752.26 387.36 750.86 396.22 750.1 405.07 746.78 418.94 736.78 425.5 723.58 430.19 710.67 436.51 696.8 441.52 680.56 439.66 663.69 436.04 647.25 433.6 635.17 428.06 631.14 414.29 631.71 405.32 632.74 396.35 634.22 387.37 636.09 378.4 638.3 369.43 640.8 360.46 649.81 352.54 658.92 344.83 668.13 337.39 677.43 330.31 686.81 323.62 696.26 317.38 710.54 308.99 715.31 306.36" stroke-dasharray="2 0" transform="rotate(83.43478260869566, 711, 400)" opacity="0.81"></path><path d="M709.87 320.28Q719.54 326.83 729.12 334.74 738.66 344 748.24 354.52 743.66 368.59 740.31 382.65 738.43 396.71 738.15 410.77 726.71 413.93 715.63 418.34 704.86 424.21 694.34 431.64 680.93 426.7 667.91 423.13 655.27 420.68 642.99 419.04 643.21 404.81 644.69 390.58 647.33 376.35 650.94 362.12 665.26 350.07 679.88 338.95 694.76 328.97 709.87 320.28 709.87 320.28 709.87 320.28" stroke-dasharray="3 2" transform="rotate(87.82608695652173, 711, 400)" opacity="0.33"></path><path d="M704.5 334.19Q711.78 338.98 719.05 344.53 726.36 350.88 733.72 357.99 730.68 368.48 728.36 378.97 722.06 396.31 708.59 407.17 700.09 412.01 691.78 417.72 682.22 413.85 672.89 410.76 659.57 402.17 656.65 385.37 658.59 374.78 661.13 364.19 671.7 355.68 682.46 347.8 698.95 337.41 704.5 334.19" stroke-dasharray="1 3" transform="rotate(92.21739130434781, 711, 400)" opacity="0.99"></path><path d="M699.6 348.12Q709.53 354.65 719.58 362.61 716.41 376.54 714.62 390.48 702.41 396.39 690.57 403.8 678.62 398.78 667.01 395.07 668.6 381.03 671.41 367.01 692.46 352.51 699.6 348.12" stroke-dasharray="3 3" transform="rotate(96.60869565217392, 711, 400)" opacity="0.80"></path></g></svg>