<svg xmlns="http://www.w3.org/2000/svg" version="1.1" xmlns:xlink="http://www.w3.org/1999/xlink" xmlns:svgjs="http://svgjs.dev/svgjs" viewBox="0 0 1422 800"><defs><linearGradient x1="50%" y1="0%" x2="50%" y2="100%" id="ccchaos-grad"><stop stop-color="hsl(206, 75%, 49%)" stop-opacity="1" offset="0%"></stop><stop stop-color="hsl(331, 90%, 56%)" stop-opacity="1" offset="100%"></stop></linearGradient></defs><g stroke-width="4" stroke="url(#ccchaos-grad)" fill="none" stroke-linecap="round"><path d="M699.02 -255.13Q712.72 -244.67 726.84 -233.98 734.24 -228.53 741.86 -223.03 749.75 -217.51 757.92 -211.98 766.4 -206.48 775.2 -201.03 784.33 -195.64 793.81 -190.35 803.62 -185.17 813.78 -180.12 824.27 -175.21 835.08 -170.44 846.19 -165.81 857.58 -161.31 869.23 -156.92 881.1 -152.62 893.15 -148.38 905.35 -144.17 917.66 -139.96 930.03 -135.7 942.41 -131.35 954.75 -126.88 967.01 -122.26 979.14 -117.44 991.08 -112.42 1002.79 -107.18 1014.23 -101.69 1025.36 -95.98 1036.13 -90.04 1046.51 -83.9 1056.46 -77.59 1065.97 -71.15 1075.02 -64.61 1083.59 -58.04 1091.67 -51.48 1099.26 -44.99 1106.37 -38.63 1113.02 -32.45 1124.8 -20.96 1135.41 -10.38 1150.77 4.3 1161.04 13.36 1176.19 24.41 1188.26 32.73 1200.27 40.9 1213.8 50.22 1221.54 55.63 1229.9 61.48 1231.61 71.38 1235.7 81.28 1241.97 91.18 1250.1 101.08 1259.66 110.99 1270.16 120.89 1281.07 130.79 1291.82 140.69 1301.86 150.6 1310.67 160.5 1317.79 170.4 1322.87 180.3 1325.65 190.2 1325.96 200.11 1323.82 210.01 1319.31 219.91 1312.68 229.81 1304.26 239.72 1294.49 249.62 1283.87 259.52 1272.95 269.42 1262.29 279.32 1252.44 289.23 1243.9 299.13 1237.12 309.03 1232.44 318.93 1230.1 328.84 1230.23 338.74 1232.82 348.64 1237.73 358.54 1244.71 368.44 1253.41 378.35 1263.37 388.25 1274.08 398.15 1285 408.05 1295.55 417.96 1305.2 427.86 1313.45 437.76 1319.88 447.66 1324.15 457.57 1326.05 467.47 1325.47 477.37 1322.45 487.27 1317.14 497.17 1309.82 507.08 1300.86 516.98 1290.73 526.88 1279.94 536.78 1269.05 546.69 1258.62 556.59 1249.18 566.49 1241.23 576.39 1235.17 586.3 1231.32 596.2 1229.86 606.1 1230.89 616 1234.33 625.91 1240.03 635.81 1247.68 645.71 1256.88 655.61 1267.18 665.52 1278.03 675.42 1291.86 691.43 1290.1 701.06 1284.9 705.88 1279.2 712 1272.97 719.41 1266.17 728.04 1258.81 737.77 1250.86 748.46 1242.32 759.9 1233.21 771.89 1223.53 784.18 1213.32 796.52 1202.59 808.65 1191.38 820.32 1179.73 831.29 1167.69 841.35 1155.31 850.3 1142.64 858.01 1129.73 864.37 1116.65 869.32 1103.46 872.86 1090.21 875.02 1076.97 875.91 1063.79 875.65 1050.72 874.44 1037.83 872.48 1025.16 870.02 1012.76 867.34 1000.66 864.7 988.91 862.38 977.53 860.65 966.55 859.76 955.99 859.93 945.85 861.35 936.16 864.16 926.9 868.45 918.07 874.26 909.66 881.59 901.66 890.37 894.03 900.48 886.76 911.75 879.81 923.98 873.15 936.91 866.74 950.27 860.54 963.79 854.51 977.15 848.6 990.06 842.78 1002.24 836.99 1013.43 831.19 1023.41 819.36 1038.25 807.15 1048.3 794 1050.51 780.13 1048.66 764.88 1042.26 748.76 1034.8 740.19 1031.23 731.33 1028.25 721.63 1016.18 711.7 1005.33 701.57 995.92 691.26 988.07 680.81 981.88 670.23 977.36 659.56 974.49 648.84 973.16 638.08 973.24 627.33 974.53 616.61 976.8 605.94 979.77 595.35 983.15 584.87 986.65 574.51 989.94 564.3 992.75 554.24 994.79 544.34 995.82 534.62 995.63 525.07 994.05 515.71 990.96 506.52 986.32 497.5 980.12 488.65 972.41 479.95 963.28 471.39 952.91 462.96 941.48 454.63 929.22 446.4 916.4 438.23 903.29 430.12 890.18 422.05 877.35 413.98 865.07 405.92 853.58 397.82 843.12 389.69 833.85 381.5 825.91 373.24 819.4 364.9 814.34 356.48 810.73 339.28 808.07 321.77 808.69 312.85 810.41 303.83 812.57 294.73 814.9 285.56 817.14 276.32 819.03 267.04 820.33 257.73 820.81 248.4 820.29 239.07 818.6 229.76 815.65 220.48 811.37 211.25 805.74 202.09 798.79 193.01 790.6 184.03 781.29 175.15 771.02 166.38 759.99 157.74 748.4 149.23 736.49 140.84 724.51 142.37 714.31 143.98 704.11 145.59 693.91 147.12 683.71 148.48 673.51 149.62 663.31 150.46 653.1 150.97 642.9 151.13 632.7 150.91 622.5 150.34 612.3 149.44 602.1 148.26 591.9 146.86 581.7 145.31 571.5 143.7 561.29 142.1 551.09 140.59 540.89 139.26 530.69 138.18 520.49 137.39 510.29 136.94 500.09 136.86 489.89 137.14 479.69 137.77 469.49 138.72 459.28 139.95 449.08 141.38 438.88 142.95 428.68 144.57 418.48 146.15 408.28 147.63 398.08 148.92 387.88 149.96 377.68 150.69 367.48 151.07 357.28 151.09 347.07 150.74 336.87 150.05 326.67 149.04 316.47 147.78 306.27 146.31 296.07 144.73 285.87 143.11 275.67 141.54 265.47 140.09 255.27 138.84 245.07 137.86 234.86 137.19 224.66 136.87 214.46 136.92 204.26 137.33 194.06 138.08 183.86 139.14 173.66 140.45 163.46 141.93 153.26 143.53 143.06 145.15 132.86 146.71 122.65 148.12 112.45 149.33 102.25 150.26 92.05 155.2 75.37 167.88 66.02 176.15 62.95 184.39 59.62 192.59 55.97 200.8 51.96 209.01 47.56 217.25 42.76 225.53 37.55 233.88 31.97 242.29 26.03 250.78 19.77 259.36 13.25 268.04 6.53 276.82 -0.31 285.69 -7.24 294.66 -14.16 303.72 -21.02 312.87 -27.76 322.09 -34.32 331.38 -40.65 340.72 -46.72 350.1 -52.51 359.5 -58 368.91 -63.2 378.31 -68.1 387.68 -72.74 397 -77.14 406.26 -81.34 415.44 -85.39 424.52 -89.32 433.49 -93.19 442.35 -97.06 451.07 -100.96 459.66 -104.93 468.1 -109.03 476.4 -113.28 484.56 -117.7 492.58 -122.31 500.47 -127.13 508.23 -132.13 515.88 -137.33 523.44 -142.7 530.92 -148.22 538.34 -153.86 545.72 -159.6 553.1 -165.4 560.48 -171.23 567.9 -177.05 575.39 -182.83 582.97 -188.56 590.66 -194.21 598.5 -199.76 606.5 -205.2 614.69 -210.52 623.08 -215.74 631.7 -220.85 640.55 -225.88 649.65 -230.82 659.01 -235.71 668.63 -240.57 678.51 -245.41 693.83 -252.69 699.02 -255.13" stroke-dasharray="1 4" transform="rotate(0, 711, 400)" opacity="0.15"></path><path d="M692.18 -231.36Q699.53 -226.24 707.1 -221.04 714.9 -215.76 722.96 -210.41 731.28 -205.01 739.88 -199.58 748.77 -194.13 757.96 -188.7 767.44 -183.3 777.21 -177.96 787.27 -172.71 797.61 -167.56 808.2 -162.54 819.04 -157.66 830.09 -152.93 841.34 -148.36 852.74 -143.94 864.28 -139.66 875.91 -135.51 887.6 -131.47 899.31 -127.5 910.99 -123.59 922.6 -119.68 934.12 -115.76 945.48 -111.77 956.65 -107.67 967.6 -103.44 978.29 -99.04 988.68 -94.44 998.73 -89.61 1008.44 -84.55 1017.76 -79.24 1026.68 -73.69 1035.19 -67.91 1043.27 -61.92 1050.92 -55.75 1058.15 -49.43 1064.96 -43 1077.18 -30.07 1088.31 -17.29 1097.92 -5.3 1106.85 5.93 1115.14 15.61 1123.34 24.28 1139.12 36.04 1151.71 43.5 1164.03 49.28 1177.77 55.48 1185.54 59 1193.85 62.84 1202.72 67.06 1212.16 71.69 1216.38 81.19 1222.54 90.68 1230.34 100.18 1239.41 109.67 1249.33 119.16 1259.61 128.66 1269.76 138.15 1279.3 147.65 1287.78 157.14 1294.8 166.64 1300 176.13 1303.16 185.62 1304.11 195.12 1302.81 204.61 1299.32 214.11 1293.82 223.6 1286.55 233.09 1277.88 242.59 1268.21 252.08 1258 261.58 1247.75 271.07 1237.94 280.57 1229.03 290.06 1221.47 299.55 1215.59 309.05 1211.7 318.54 1209.96 328.04 1210.47 337.53 1213.2 347.03 1218.03 356.52 1224.71 366.01 1232.93 375.51 1242.3 385 1252.37 394.5 1262.67 403.99 1272.69 413.49 1281.96 422.98 1290.05 432.47 1296.55 441.97 1301.17 451.46 1303.67 460.96 1303.95 470.45 1301.99 479.95 1297.88 489.44 1291.82 498.93 1284.1 508.43 1275.08 517.92 1265.2 527.42 1254.93 536.91 1244.75 546.41 1235.17 555.9 1226.62 565.4 1219.52 574.89 1214.21 584.38 1210.95 593.88 1209.88 603.37 1211.06 612.87 1214.43 622.36 1219.84 631.86 1227.02 641.35 1235.63 650.85 1245.26 660.34 1258.75 677.12 1258.17 690.66 1253.97 698.06 1249.42 706.55 1244.48 716.01 1239.11 726.3 1233.29 737.26 1226.98 748.69 1220.17 760.37 1212.84 772.09 1205 783.63 1196.64 794.75 1187.77 805.27 1178.4 814.97 1168.56 823.7 1158.27 831.32 1147.56 837.74 1136.46 842.88 1125.02 846.74 1113.28 849.34 1101.28 850.74 1089.07 851.04 1076.7 850.4 1064.23 848.98 1051.69 847 1039.15 844.66 1026.66 842.22 1014.25 839.91 1001.98 837.97 989.89 836.64 978.02 836.12 966.4 836.61 955.08 838.26 944.07 841.18 933.4 845.46 923.08 851.12 913.14 858.16 903.57 866.51 894.39 876.08 885.59 886.72 877.16 898.25 869.1 910.46 861.38 923.11 853.99 935.96 846.91 948.73 840.1 961.18 833.55 973.06 827.2 984.11 821.05 994.15 815.03 1002.98 803.32 1015.8 791.72 1024.22 779.95 1025.6 767.89 1023.44 755.05 1017.37 741.61 1010.46 734.5 1007.2 727.14 1004.48 716.84 992.96 706.43 982.55 695.94 973.43 685.39 965.73 674.83 959.52 664.27 954.84 653.75 951.67 643.29 949.94 632.91 949.52 622.64 950.27 612.49 951.99 602.49 954.46 592.65 957.42 582.97 960.61 573.46 963.76 564.14 966.62 555.01 968.92 546.06 970.44 528.77 969.69 511.98 965.1 503.84 960.37 495.83 954.23 487.94 946.72 480.13 937.94 472.4 928.03 464.73 917.16 457.1 905.53 449.49 893.37 441.87 880.92 434.25 868.44 426.58 856.16 418.87 844.33 411.1 833.17 403.26 822.88 395.33 813.63 387.31 805.55 379.2 798.73 370.98 793.23 362.67 789.04 354.25 786.15 337.09 784.33 319.69 785.3 310.86 786.96 301.99 788.95 293.07 791.04 284.13 793 275.18 794.61 266.24 795.65 257.31 795.95 248.42 795.32 239.58 793.64 230.8 790.82 222.09 786.79 213.47 781.54 204.94 775.09 196.51 767.5 188.18 758.86 179.96 749.32 171.86 739.03 163.85 728.18 165.19 718.2 166.51 708.22 167.76 698.24 168.88 688.26 169.81 678.28 170.51 668.3 170.95 658.32 171.1 648.34 170.96 638.36 170.54 628.38 169.85 618.4 168.93 608.42 167.82 598.44 166.57 588.46 165.25 578.48 163.92 568.5 162.64 558.52 161.47 548.54 160.46 538.56 159.68 528.58 159.14 518.6 158.89 508.62 158.92 498.64 159.25 488.66 159.85 478.68 160.69 468.7 161.74 458.72 162.95 448.74 164.25 438.76 165.58 428.78 166.89 418.8 168.11 408.82 169.18 398.84 170.05 388.86 170.67 378.88 171.03 368.9 171.09 358.92 170.87 348.94 170.36 338.96 169.6 328.98 168.62 319 167.46 309.02 166.19 299.04 164.85 289.06 163.53 279.08 162.27 269.1 161.15 259.12 160.2 249.14 159.49 239.16 159.04 229.18 158.87 219.2 158.99 209.22 159.4 199.24 160.08 189.27 160.99 179.29 162.09 169.31 163.33 159.33 164.65 149.35 165.98 139.37 167.27 129.39 168.45 119.41 169.46 109.43 174.68 93.01 187.31 83.4 195.45 79.9 203.53 76.04 211.57 71.79 219.58 67.13 227.59 62.07 235.6 56.64 243.62 50.84 251.69 44.74 259.8 38.36 267.97 31.78 276.21 25.04 284.52 18.23 292.92 11.4 301.41 4.61 309.99 -2.05 318.67 -8.57 327.43 -14.87 336.27 -20.92 345.2 -26.7 354.19 -32.18 363.25 -37.35 372.35 -42.22 381.49 -46.81 390.65 -51.13 399.82 -55.22 408.97 -59.11 418.1 -62.84 427.19 -66.48 436.22 -70.05 445.17 -73.62 454.03 -77.22 462.79 -80.91 471.43 -84.72 479.94 -88.68 488.32 -92.82 496.55 -97.16 504.64 -101.7 512.58 -106.46 520.37 -111.42 528.01 -116.57 535.52 -121.9 542.89 -127.37 550.15 -132.96 557.3 -138.64 564.36 -144.38 571.35 -150.13 578.29 -155.88 585.2 -161.58 592.1 -167.22 599.02 -172.76 605.99 -178.2 613.02 -183.53 620.15 -188.73 627.4 -193.8 634.79 -198.76 642.34 -203.61 650.08 -208.36 658.03 -213.03 666.2 -217.65 674.61 -222.23 687.72 -229.07 692.18 -231.36" stroke-dasharray="2 0" transform="rotate(3.884615384615385, 711, 400)" opacity="0.88"></path><path d="M690.66 -207.59Q698.86 -202.53 707.31 -197.39 716.01 -192.17 724.97 -186.88 734.17 -181.55 743.63 -176.19 753.32 -170.82 763.25 -165.48 773.39 -160.18 783.74 -154.95 794.26 -149.81 804.95 -144.8 815.76 -139.91 826.68 -135.18 837.67 -130.61 848.71 -126.21 859.76 -121.96 870.78 -117.88 881.74 -113.94 892.61 -110.12 903.35 -106.4 913.93 -102.75 924.32 -99.14 934.48 -95.53 944.38 -91.88 954 -88.16 963.32 -84.32 972.3 -80.33 980.95 -76.17 989.23 -71.79 997.15 -67.18 1004.69 -62.33 1018.48 -51.76 1031.18 -40.48 1042.22 -28.25 1052.4 -15.66 1061.47 -2.95 1070.09 9.51 1078.4 21.08 1086.79 31.86 1095.8 41.05 1105.46 49.23 1116.62 55.87 1128.91 61.78 1143.37 66.99 1159.27 72.17 1168.08 74.9 1177.39 77.82 1187.2 80.99 1197.5 84.47 1203.64 93.63 1211.22 102.78 1219.89 111.94 1229.27 121.1 1238.94 130.25 1248.49 139.41 1257.48 148.57 1265.53 157.72 1272.27 166.88 1277.41 176.04 1280.72 185.19 1282.06 194.35 1281.37 203.51 1278.67 212.66 1274.09 221.82 1267.82 230.98 1260.15 240.13 1251.42 249.29 1242 258.45 1232.32 267.6 1222.8 276.76 1213.87 285.92 1205.91 295.07 1199.27 304.23 1194.26 313.39 1191.1 322.54 1189.91 331.7 1190.76 340.85 1193.6 350.01 1198.32 359.17 1204.7 368.32 1212.46 377.48 1221.26 386.64 1230.71 395.79 1240.39 404.95 1249.88 414.11 1258.76 423.26 1266.63 432.42 1273.15 441.58 1278.03 450.73 1281.05 459.89 1282.09 469.05 1281.09 478.2 1278.1 487.36 1273.25 496.52 1266.76 505.67 1258.91 514.83 1250.04 523.98 1240.56 533.14 1230.88 542.3 1221.42 551.45 1212.6 560.61 1204.82 569.77 1198.42 578.92 1193.67 588.08 1190.79 597.24 1189.91 606.39 1191.06 615.55 1194.19 624.71 1199.17 633.86 1205.78 643.02 1213.72 652.17 1222.64 661.33 1232.15 670.49 1228.78 678.01 1225.32 686.47 1221.72 695.76 1217.91 705.76 1213.87 716.3 1209.54 727.22 1204.88 738.33 1199.87 749.43 1194.47 760.34 1188.66 770.85 1182.42 780.8 1175.73 790.01 1168.58 798.35 1160.98 805.69 1152.92 811.94 1144.42 817.05 1135.48 820.99 1126.11 823.79 1116.35 825.49 1106.22 826.17 1095.74 825.94 1084.96 824.96 1073.9 823.39 1062.6 821.42 1051.11 819.24 1039.46 817.08 1027.71 815.13 1015.88 813.61 1004.03 812.72 992.2 812.62 980.42 813.47 968.75 815.41 957.21 818.52 945.84 822.87 934.67 828.47 923.74 835.31 913.06 843.35 902.66 852.47 892.57 862.57 882.79 873.48 873.33 885.03 864.2 897 855.4 909.19 846.94 921.36 838.8 933.29 830.97 944.75 823.45 955.54 816.21 965.47 809.24 974.37 802.52 982.11 789.79 993.04 777.55 999.97 765.84 1000.64 754.26 998.24 742.62 992.52 730.75 986.15 724.64 983.18 718.38 980.72 708.02 969.74 697.69 959.76 687.4 950.95 677.19 943.41 667.07 937.22 657.07 932.42 647.2 928.99 637.48 926.88 627.92 926.01 618.54 926.25 609.33 927.44 600.31 929.39 591.48 931.9 582.83 934.73 566.18 940.28 550.04 944.75 534.65 945.44 519.63 942.9 512.29 939.51 505.03 934.83 497.82 928.86 490.64 921.66 483.48 913.32 476.33 903.94 469.15 893.68 461.95 882.72 454.7 871.24 447.39 859.46 440.01 847.59 432.55 835.86 424.99 824.46 417.35 813.61 409.6 803.47 401.76 794.22 393.81 785.97 385.76 778.83 377.61 772.86 369.38 768.09 352.63 762.59 335.68 760.25 318.53 761.91 301.32 764.96 284.17 768.39 267.11 770.86 250.34 770.06 233.8 766.48 225.67 762.87 217.64 758.16 209.7 752.35 201.85 745.48 194.09 737.65 186.41 728.94 187.46 719.21 188.45 709.49 189.32 699.77 190.05 690.05 190.61 680.33 190.95 670.6 191.08 660.88 190.98 651.16 190.66 641.44 190.14 631.72 189.43 621.99 188.57 612.27 187.6 602.55 186.55 592.83 185.48 583.11 184.43 573.38 183.45 563.66 182.59 553.94 181.87 544.22 181.33 534.5 181 524.77 180.89 515.05 181.01 505.33 181.34 495.61 181.88 485.89 182.6 476.16 183.47 466.44 184.45 456.72 185.5 447 186.57 437.28 187.61 427.55 188.59 417.83 189.44 408.11 190.15 398.39 190.67 388.67 190.98 378.94 191.08 369.22 190.95 359.5 190.6 349.78 190.04 340.06 189.31 330.33 188.43 320.61 187.44 310.89 186.39 301.17 185.32 291.45 184.28 281.72 183.31 272 182.47 262.28 181.78 252.56 181.27 242.83 180.97 233.11 180.89 223.39 181.04 213.67 181.41 203.95 181.98 194.22 182.72 184.5 183.61 174.78 184.6 165.06 185.66 155.34 186.73 145.61 187.77 135.89 188.72 126.17 193.96 109.87 206.39 99.51 214.35 95.33 222.25 90.75 230.09 85.77 237.9 80.42 245.67 74.73 253.44 68.73 261.21 62.46 268.99 56 276.8 49.38 284.65 42.68 292.55 35.96 300.51 29.28 308.54 22.7 316.65 16.27 324.83 10.04 333.1 4.05 341.46 -1.66 349.91 -7.08 358.44 -12.2 367.05 -17.02 375.74 -21.53 384.5 -25.76 393.32 -29.74 402.19 -33.49 411.09 -37.06 420.02 -40.49 428.97 -43.82 437.9 -47.1 446.82 -50.39 455.7 -53.71 464.54 -57.13 473.3 -60.67 481.99 -64.37 490.58 -68.26 499.06 -72.35 507.43 -76.65 515.66 -81.17 523.75 -85.91 531.7 -90.85 539.49 -95.98 547.14 -101.28 554.63 -106.71 561.97 -112.26 569.16 -117.88 576.21 -123.54 583.13 -129.22 596.58 -140.44 609.77 -151.44 622.7 -161.87 635.61 -171.9 648.71 -181.28 662.07 -190.34 683.38 -203.3 690.66 -207.59" stroke-dasharray="1 2" transform="rotate(7.76923076923077, 711, 400)" opacity="0.74"></path><path d="M694.9 -183.82Q703.87 -178.84 713.04 -173.77 722.41 -168.62 731.96 -163.4 741.7 -158.15 751.59 -152.87 761.62 -147.58 771.78 -142.33 782.04 -137.13 792.37 -132 802.75 -126.97 813.15 -122.07 823.56 -117.31 833.92 -112.7 844.23 -108.26 854.44 -104 864.54 -99.91 874.49 -95.98 884.26 -92.22 893.83 -88.6 903.18 -85.09 912.28 -81.68 921.12 -78.33 929.67 -75.01 945.7 -68.26 960.77 -61.27 974.23 -53.51 986.74 -45.12 997.79 -35.53 1008.05 -25.18 1017.28 -13.71 1026.07 -1.7 1034.47 10.77 1042.86 23.27 1051.65 35.28 1060.9 46.72 1071.32 56.82 1082.63 65.96 1095.73 73.45 1110.03 80 1117.93 82.8 1126.26 85.4 1135.03 87.84 1144.25 90.18 1153.89 92.49 1163.97 94.82 1174.44 97.24 1185.31 99.82 1192.71 108.7 1201.03 117.58 1209.92 126.45 1219.01 135.33 1227.93 144.2 1236.34 153.08 1243.87 161.96 1250.23 170.83 1255.15 179.71 1258.44 188.59 1259.96 197.46 1259.66 206.34 1257.53 215.21 1253.67 224.09 1248.24 232.97 1241.46 241.84 1233.6 250.72 1224.98 259.6 1215.96 268.47 1206.9 277.35 1198.16 286.22 1190.11 295.1 1183.08 303.98 1177.34 312.85 1173.14 321.73 1170.63 330.61 1169.94 339.48 1171.08 348.36 1174 357.23 1178.59 366.11 1184.67 374.99 1191.98 383.86 1200.22 392.74 1209.07 401.62 1218.15 410.49 1227.11 419.37 1235.58 428.25 1243.21 437.12 1249.69 446 1254.76 454.87 1258.21 463.75 1259.9 472.63 1259.76 481.5 1257.8 490.38 1254.11 499.26 1248.81 508.13 1242.15 517.01 1234.37 525.89 1225.81 534.76 1216.81 543.64 1207.74 552.52 1198.96 561.39 1190.83 570.27 1183.69 579.14 1177.82 588.02 1173.46 596.9 1170.79 605.77 1169.93 614.65 1170.89 623.53 1173.65 632.4 1178.1 641.28 1184.04 650.16 1191.25 659.03 1199.42 667.91 1195.99 677.09 1192.59 686.84 1189.19 697.01 1185.73 707.44 1182.17 717.98 1178.46 728.46 1174.58 738.7 1170.47 748.54 1166.1 757.84 1161.44 766.44 1150.96 780.64 1139.4 791.92 1125.9 798.05 1111.19 801.22 1094.52 800.3 1076.74 797.68 1067.24 795.78 1057.44 793.82 1047.35 791.98 1037 790.45 1026.43 789.39 1015.68 788.96 1004.77 789.33 993.74 790.6 982.62 792.88 971.46 796.24 960.28 800.72 949.13 806.34 938.04 813.07 927.04 820.86 916.16 829.63 905.43 839.26 894.88 849.63 884.53 860.56 874.41 871.9 864.53 883.44 854.9 894.99 845.55 906.36 836.47 917.35 827.68 927.78 819.18 937.47 810.96 946.29 803.02 954.09 795.36 960.78 780.94 969.98 767.23 975.56 754.51 975.64 742.26 973.06 730.55 967.71 719.01 961.86 713.27 959.18 707.52 956.95 697.73 946.5 688.07 936.97 678.55 928.47 669.19 921.11 660 914.97 650.99 910.07 633.62 904.56 616.83 902.46 600.96 904.88 585.61 909.05 571.02 914.24 556.81 918.85 543.08 920.63 529.53 919.8 516.11 913.64 502.68 904.02 495.91 897.22 489.1 889.38 482.22 880.6 475.27 871 468.23 860.72 461.11 849.95 453.89 838.85 446.56 827.61 439.14 816.41 431.61 805.45 423.98 794.91 416.24 784.93 408.41 775.69 400.5 767.28 392.49 759.83 384.42 753.4 376.27 748.03 368.08 743.75 351.55 738.79 334.96 736.64 318.39 738.03 301.89 740.68 285.62 743.73 269.55 746 253.83 745.48 238.36 742.56 230.76 739.49 223.23 735.43 212.45 722.67 209.78 705.55 210.32 696.15 210.72 686.74 210.97 677.33 211.06 667.92 210.98 658.52 210.74 649.11 210.34 639.7 209.81 630.3 209.17 620.89 208.43 611.48 207.64 602.07 206.82 592.67 206.01 583.26 205.23 573.85 204.53 564.44 203.93 555.04 203.45 545.63 203.12 536.22 202.94 526.81 202.93 517.41 203.08 508 203.39 498.59 203.85 489.18 204.44 479.78 205.13 470.37 205.89 460.96 206.7 451.55 207.52 442.15 208.32 432.74 209.06 423.33 209.72 413.92 210.27 404.52 210.69 395.11 210.95 385.7 211.05 376.29 210.99 366.89 210.77 357.48 210.39 348.07 209.87 338.67 209.23 329.26 208.51 319.85 207.72 310.44 206.9 301.04 206.08 291.63 205.3 282.22 204.59 272.81 203.98 263.41 203.49 254 203.14 244.59 202.95 235.19 202.92 225.78 203.06 216.37 203.36 206.96 203.8 197.56 204.38 188.15 205.06 178.74 205.82 169.33 206.62 159.93 207.44 150.52 208.25 141.11 213.28 124.91 225.37 113.53 233.1 108.57 240.77 103.25 248.38 97.6 255.95 91.67 263.48 85.49 270.98 79.12 278.47 72.61 285.96 66.03 293.46 59.43 300.98 52.88 308.54 46.42 316.13 40.12 323.78 34.01 331.49 28.13 339.27 22.53 347.12 17.2 355.06 12.19 363.07 7.48 371.18 3.07 379.37 -1.04 387.64 -4.89 396 -8.51 404.43 -11.91 412.93 -15.15 421.5 -18.26 430.13 -21.3 438.79 -24.3 447.49 -27.32 456.21 -30.4 464.94 -33.57 473.66 -36.87 482.35 -40.34 491.01 -43.99 499.62 -47.86 508.17 -51.94 516.63 -56.25 525 -60.78 533.26 -65.52 541.4 -70.47 549.41 -75.59 557.29 -80.86 565.02 -86.27 572.6 -91.76 580.02 -97.32 587.28 -102.91 594.39 -108.49 608.08 -119.48 621.34 -130.21 633.99 -140.33 646.35 -150.02 658.42 -159.01 670.43 -167.63 688.73 -179.81 694.9 -183.82" stroke-dasharray="2 1" transform="rotate(11.653846153846155, 711, 400)" opacity="0.59"></path><path d="M703.7 -160.05Q722.5 -150.17 741.7 -139.97 761.17 -129.61 780.74 -119.26 800.21 -109.12 819.4 -99.4 838.12 -90.24 856.19 -81.77 873.46 -74.01 889.78 -66.93 905.06 -60.39 919.24 -54.19 932.29 -48.09 944.26 -41.79 955.2 -35.01 965.24 -27.5 974.55 -19.08 983.32 -9.66 991.78 0.75 1000.18 12.05 1008.8 23.98 1017.89 36.25 1027.72 48.48 1038.52 60.29 1050.5 71.33 1063.83 81.3 1078.63 90.02 1094.96 97.42 1112.83 103.57 1132.19 108.69 1152.92 113.12 1174.85 117.28 1191.25 134.53 1208.06 151.79 1222.78 169.05 1233.24 186.31 1237.89 203.57 1236.03 220.83 1227.95 238.09 1214.83 255.35 1198.64 272.6 1181.75 289.86 1166.68 307.12 1155.65 324.38 1150.3 341.64 1151.43 358.9 1158.86 376.16 1171.5 393.42 1187.47 410.68 1204.4 427.93 1219.8 445.19 1231.37 462.45 1237.4 479.71 1237.01 496.97 1230.24 514.23 1218.11 531.49 1202.4 548.75 1185.44 566.01 1169.76 583.27 1157.66 600.53 1150.95 617.79 1150.61 635.04 1156.7 652.3 1168.32 669.56 1160.89 689.29 1153.89 709.04 1146.98 727.67 1139.85 744.14 1132.21 757.6 1123.79 767.5 1114.36 773.68 1103.76 776.31 1091.84 775.97 1078.54 773.55 1063.84 770.16 1047.78 767.04 1030.45 765.41 1011.99 766.37 992.58 770.76 972.42 779.09 951.73 791.45 930.76 807.54 909.75 826.65 888.92 847.76 868.49 869.62 848.66 890.87 829.57 910.23 811.34 926.55 794.05 939.01 777.74 947.17 762.41 951.01 748.01 950.98 734.45 947.92 721.63 943 709.41 937.6 697.64 933.18 680.38 914.16 663.87 898.83 648.13 887.81 633.12 881.26 618.79 878.91 605.06 880.05 591.81 883.61 578.94 888.33 566.31 892.81 553.79 895.72 541.26 895.9 528.59 892.49 515.69 884.99 502.47 873.36 488.88 857.94 474.87 839.49 460.44 819.04 445.6 797.81 430.38 777.09 414.84 758.09 399.05 741.83 383.09 729.04 367.05 720.06 351.01 714.87 335.05 713.03 319.25 713.81 303.67 716.17 288.34 718.98 273.3 721.06 258.54 721.31 244.04 718.86 229.76 713.12 230.56 695.07 230.99 677.01 230.96 658.96 230.5 640.9 229.66 622.85 228.58 604.8 227.4 586.74 226.32 568.69 225.48 550.63 225.01 532.58 224.98 514.52 225.4 496.47 226.2 478.42 227.27 460.36 228.44 442.31 229.54 424.25 230.42 406.2 230.93 388.14 231.01 370.09 230.64 352.04 229.87 333.98 228.83 315.93 227.66 297.87 226.54 279.82 225.64 261.77 225.08 243.71 224.95 225.66 225.27 207.6 225.99 189.55 227.01 171.5 228.17 153.44 229.31 135.39 244.46 125.04 259.34 113.48 273.99 101.07 288.46 88.21 302.83 75.36 317.18 62.92 331.59 51.27 346.15 40.66 360.92 31.24 375.97 23.01 391.33 15.86 407.03 9.58 423.07 3.86 439.44 -1.63 456.08 -7.24 472.93 -13.28 489.92 -20.01 506.94 -27.57 523.89 -36.04 540.65 -45.37 557.12 -55.44 573.19 -66.06 588.77 -76.97 603.78 -87.94 618.18 -98.7 631.95 -109.08 645.09 -118.92 657.63 -128.16 669.66 -136.79 681.26 -144.9 698.13 -156.33 703.7 -160.05" stroke-dasharray="2 2" transform="rotate(15.53846153846154, 711, 400)" opacity="0.37"></path><path d="M714.57 -136.3Q732.91 -126.6 751.24 -116.6 769.4 -106.43 787.24 -96.28 804.6 -86.34 821.34 -76.81 837.35 -67.84 852.52 -59.55 866.77 -52 880.07 -45.16 892.41 -38.92 903.82 -33.12 914.37 -27.54 924.16 -21.9 933.34 -15.94 942.06 -9.39 950.52 -2.03 958.92 6.26 967.49 15.57 976.46 25.84 986.02 36.95 996.39 48.66 1007.75 60.66 1020.25 72.62 1034 84.17 1049.06 94.98 1065.48 104.77 1083.22 113.35 1102.21 120.64 1122.33 126.69 1143.42 131.66 1165.27 135.84 1181.12 152.62 1195.86 169.4 1207.5 186.17 1214.46 202.95 1215.79 219.73 1211.31 236.5 1201.63 253.28 1188.06 270.06 1172.45 286.83 1156.91 303.61 1143.56 320.39 1134.19 337.16 1130.09 353.94 1131.81 370.72 1139.11 387.49 1151.02 404.27 1165.9 421.05 1181.74 437.82 1196.4 454.6 1207.88 471.38 1214.62 488.15 1215.72 504.93 1211.02 521.71 1201.15 538.48 1187.47 555.26 1171.82 572.03 1156.33 588.81 1143.1 605.59 1133.92 622.36 1130.05 639.14 1132 655.92 1139.51 672.69 1131.08 691.06 1123.39 708.09 1116.18 722.94 1109.19 734.96 1094.54 747.62 1078.29 751.23 1068.73 749.13 1058.1 746.16 1046.31 743.37 1033.32 741.83 1019.12 742.48 1003.75 746.09 987.28 753.15 969.84 763.85 951.57 778 932.64 795.11 913.25 814.41 893.58 834.88 873.83 855.4 854.21 874.82 834.88 892.07 816.01 906.28 797.74 916.84 780.17 923.5 763.39 926.35 747.42 925.86 732.29 922.82 717.98 918.26 704.42 913.38 691.55 909.42 676.94 891.36 663.04 876.58 649.78 865.63 637.07 858.7 624.81 855.61 612.88 855.8 601.16 858.45 589.53 862.5 577.86 866.76 566.05 870.06 554 871.34 541.63 869.72 528.88 864.63 515.71 855.81 502.11 843.37 488.09 827.74 473.66 809.65 458.87 790.05 443.79 770.01 428.47 750.62 413.01 732.91 397.47 717.72 381.94 705.65 366.49 697 351.19 691.74 336.09 689.53 321.22 689.74 306.62 691.55 292.27 693.97 278.17 696.01 264.28 696.69 250.56 695.21 250.91 678.03 251 660.86 250.82 643.68 250.39 626.51 249.77 609.33 249.04 592.16 248.3 574.99 247.66 557.81 247.2 540.64 246.98 523.46 247.03 506.29 247.34 489.11 247.88 471.94 248.57 454.76 249.32 437.59 250.02 420.41 250.58 403.24 250.92 386.07 251 368.89 250.81 351.72 250.37 334.54 249.74 317.37 249.01 300.19 248.28 283.02 247.64 265.84 247.18 248.67 246.97 231.49 247.03 214.32 247.36 197.14 247.91 179.97 248.6 162.79 249.35 145.62 263.89 134.04 278.18 121.74 292.24 109.14 306.1 96.63 319.83 84.61 333.5 73.4 347.16 63.23 360.89 54.22 374.77 46.39 388.87 39.63 403.23 33.74 417.91 28.45 432.93 23.44 448.29 18.39 463.99 12.99 480.01 6.98 496.28 0.17 512.74 -7.51 529.31 -16.1 545.89 -25.51 562.39 -35.58 578.69 -46.11 594.69 -56.85 610.3 -67.56 625.42 -78.02 639.99 -88.04 653.94 -97.49 667.27 -106.31 679.95 -114.51 692.02 -122.16 709.05 -132.83 714.57 -136.3" stroke-dasharray="3 2" transform="rotate(19.423076923076923, 711, 400)" opacity="0.70"></path><path d="M724.42 -112.53Q741.24 -103.05 757.69 -93.26 773.66 -83.31 789.04 -73.37 803.74 -63.64 817.69 -54.3 830.85 -45.5 843.18 -37.37 854.71 -29.98 865.46 -23.31 875.51 -17.31 884.95 -11.82 893.89 -6.66 902.48 -1.59 910.88 3.63 919.26 9.29 927.81 15.6 936.7 22.76 946.12 30.87 956.23 39.97 967.18 50.01 979.1 60.84 992.09 72.26 1006.21 83.96 1021.5 95.64 1037.94 106.96 1055.5 117.61 1074.08 127.31 1093.56 135.88 1113.79 143.2 1134.58 149.3 1155.72 154.28 1169.98 170.53 1182 186.77 1190.32 203.02 1193.89 219.27 1192.27 235.52 1185.67 251.77 1174.9 268.02 1161.29 284.27 1146.54 300.52 1132.45 316.77 1120.78 333.02 1112.98 349.27 1110 365.52 1112.22 381.77 1119.36 398.02 1130.53 414.27 1144.37 430.52 1159.14 446.77 1173.03 463.02 1184.31 479.27 1191.6 495.52 1193.98 511.77 1191.16 528.02 1183.5 544.27 1171.93 560.52 1157.9 576.77 1143.13 593.02 1129.46 609.27 1118.58 625.52 1111.83 641.77 1110.05 658.02 1113.46 674.27 1103.78 689.53 1095.05 702.6 1087.06 712.99 1079.62 720.44 1065.44 725.67 1050.92 724.48 1042.95 721.87 1034.3 719.48 1024.82 718.18 1014.42 718.8 1003.02 722 990.57 728.23 977.09 737.69 962.59 750.29 947.14 765.69 930.84 783.28 913.81 802.26 896.17 821.72 878.09 840.65 859.72 858.11 841.22 873.26 822.77 885.45 804.5 894.26 786.55 899.58 769.06 901.58 752.11 900.73 735.79 897.75 720.15 893.55 705.2 889.17 690.96 885.65 678.88 868.54 667.29 854.33 656.07 843.51 645.11 836.28 634.3 832.53 623.52 831.85 612.66 833.58 601.63 836.87 590.33 840.74 578.7 844.18 566.68 846.22 554.24 846.03 541.35 843 528.03 836.73 514.3 827.13 500.19 814.4 485.75 798.99 471.05 781.56 456.16 762.95 441.15 744.09 426.09 725.91 411.06 709.26 396.12 694.86 381.33 683.22 366.74 674.61 352.37 669.04 338.25 666.25 324.37 665.76 310.73 666.91 297.3 668.88 284.04 670.83 270.9 671.91 270.98 655.7 270.94 639.49 270.78 623.28 270.52 607.07 270.2 590.86 269.84 574.65 269.51 558.44 269.24 542.23 269.05 526.02 268.99 509.81 269.04 493.6 269.22 477.39 269.48 461.18 269.81 444.98 270.17 428.77 270.5 412.56 270.76 396.35 270.93 380.14 270.98 363.93 270.91 347.72 270.73 331.51 270.45 315.3 270.11 299.09 269.76 282.88 269.44 266.67 269.18 250.46 269.03 234.25 268.99 218.05 269.07 201.84 269.27 185.63 269.56 169.42 269.9 153.21 283.79 141.06 297.46 128.76 310.89 116.69 324.13 105.19 337.21 94.53 350.17 84.92 363.08 76.45 375.99 69.12 388.98 62.83 402.11 57.39 415.45 52.54 429.04 48 442.93 43.45 457.16 38.62 471.74 33.23 486.67 27.11 501.94 20.12 517.51 12.24 533.34 3.5 549.35 -5.97 565.47 -16.02 581.61 -26.42 597.68 -36.94 613.56 -47.35 629.18 -57.45 644.42 -67.06 659.21 -76.09 673.47 -84.46 687.15 -92.21 700.21 -99.39 718.52 -109.32 724.42 -112.53" stroke-dasharray="0 2" transform="rotate(23.30769230769231, 711, 400)" opacity="0.25"></path><path d="M730.46 -88.76Q745.01 -79.52 759.01 -69.98 772.39 -60.26 785.1 -50.56 797.12 -41.04 808.46 -31.89 819.13 -23.25 829.18 -15.26 838.67 -7.99 847.7 -1.45 856.35 4.39 864.77 9.65 873.07 14.49 881.42 19.1 889.95 23.71 898.81 28.58 908.15 33.93 918.11 39.97 928.8 46.86 940.33 54.68 952.77 63.48 966.2 73.18 980.62 83.66 996.04 94.71 1012.42 106.08 1029.71 117.47 1047.8 128.59 1066.58 139.12 1085.91 148.82 1105.6 157.48 1125.49 164.98 1145.37 171.28 1157.24 186.92 1166.16 202.55 1171.13 218.19 1171.59 233.83 1167.48 249.46 1159.28 265.1 1147.9 280.74 1134.62 296.37 1120.93 312.01 1108.36 327.65 1098.35 343.28 1091.99 358.92 1090.02 374.56 1092.65 390.19 1099.59 405.83 1110.06 421.47 1122.87 437.11 1136.6 452.74 1149.7 468.38 1160.69 484.02 1168.35 499.65 1171.81 515.29 1170.68 530.93 1165.09 546.56 1155.67 562.2 1143.48 577.84 1129.88 593.48 1116.41 609.11 1104.57 624.75 1095.7 640.39 1090.8 656.03 1090.41 671.66 1079.43 682.79 1069.47 691.42 1052.4 699.74 1037.09 701.45 1022.93 697.54 1008.4 694.49 1000.5 695.29 992.01 698.38 982.82 704.13 972.84 712.74 962.01 724.16 950.28 738.15 937.67 754.22 924.18 771.75 909.86 789.99 894.79 808.1 879.05 825.26 862.75 840.71 846.01 853.81 828.95 864.09 811.71 871.31 794.42 875.44 777.21 876.72 760.2 875.6 743.49 872.73 727.18 868.9 711.35 864.98 696.05 861.89 685.87 845.71 675.87 832.09 665.92 821.46 655.93 814 645.8 809.68 635.45 808.19 624.79 809.04 613.77 811.53 602.35 814.88 590.49 818.21 578.19 820.7 565.45 821.58 552.3 820.22 538.77 816.17 524.91 809.2 510.77 799.3 496.42 786.69 481.92 771.8 467.35 755.24 452.77 737.7 438.25 719.99 423.85 702.87 409.6 687.09 395.56 673.25 381.74 661.8 368.16 653.01 354.82 646.92 341.71 643.39 328.81 642.06 316.08 642.41 303.48 643.8 290.96 645.53 290.96 630.32 290.96 615.12 290.97 599.91 290.98 584.71 290.98 569.5 290.99 554.29 291 539.09 291.01 523.88 291.01 508.68 291.01 493.47 291.01 478.26 291 463.06 291 447.85 290.99 432.65 290.98 417.44 290.97 402.24 290.97 387.03 290.96 371.82 290.96 356.62 290.96 341.41 290.97 326.21 290.97 311 290.98 295.8 290.99 280.59 291 265.39 291 250.18 291.01 234.97 291.01 219.77 291.01 204.56 291.01 189.36 291 174.15 290.99 158.95 304.24 147.05 317.26 135.53 330.08 124.67 342.68 114.7 355.11 105.78 367.39 97.98 379.57 91.26 391.69 85.52 403.82 80.57 416 76.19 428.32 72.11 440.81 68.03 453.55 63.68 466.56 58.84 479.9 53.3 493.58 46.94 507.62 39.7 522.02 31.61 536.75 22.73 551.79 13.21 567.1 3.23 582.6 -6.98 598.23 -17.22 613.91 -27.28 629.55 -36.96 645.05 -46.14 660.34 -54.7 675.3 -62.61 689.86 -69.89 703.95 -76.59 723.98 -85.8 730.46 -88.76" stroke-dasharray="0 2" transform="rotate(27.19230769230769, 711, 400)" opacity="0.95"></path><path d="M730.98 -64.99Q743.04 -56.02 754.53 -46.73 765.45 -37.29 775.8 -27.83 785.62 -18.55 794.97 -9.59 803.9 -1.12 812.5 6.74 820.86 13.92 829.09 20.38 837.3 26.14 845.61 31.26 854.14 35.87 863 40.14 872.32 44.27 882.21 48.47 892.74 52.97 904.01 57.99 916.07 63.69 928.97 70.22 942.72 77.67 957.32 86.05 972.75 95.31 988.95 105.34 1005.85 115.95 1023.34 126.93 1041.33 138.01 1059.66 148.91 1078.2 159.37 1096.79 169.12 1115.26 177.96 1133.46 185.75 1142.43 200.67 1148.12 215.59 1149.93 230.51 1147.69 245.43 1141.62 260.35 1132.34 275.27 1120.79 290.18 1108.15 305.1 1095.69 320.02 1084.68 334.94 1076.24 349.86 1071.23 364.78 1070.15 379.7 1073.11 394.62 1079.82 409.54 1089.58 424.46 1101.42 439.37 1114.13 454.29 1126.42 469.21 1137.04 484.13 1144.91 499.05 1149.24 513.97 1149.58 528.89 1145.91 543.81 1138.59 558.73 1128.36 573.64 1116.27 588.56 1103.55 603.48 1091.47 618.4 1081.28 633.32 1074 648.24 1070.37 663.16 1058.19 669.93 1047.02 674.42 1036.77 676.77 1027.38 677.28 1010.93 674.6 995.92 671.3 981.85 673.02 967.48 680.76 959.77 688.84 951.58 699.42 942.81 712.28 933.38 727.06 923.25 743.25 912.36 760.23 900.72 777.34 888.33 793.86 875.22 809.13 861.43 822.56 847.04 833.7 832.11 842.22 816.74 848.01 801.02 851.11 785.07 851.8 768.99 850.49 752.88 847.76 736.84 844.29 720.98 840.82 705.37 838.12 696.18 822.87 686.86 809.86 677.33 799.46 667.51 791.86 657.35 787.06 646.8 784.84 635.82 784.84 624.41 786.51 612.56 789.22 600.28 792.27 587.59 794.93 574.53 796.53 561.15 796.46 547.51 794.25 533.65 789.59 519.65 782.33 505.56 772.5 491.46 760.34 477.4 746.22 463.43 730.65 449.6 714.23 435.96 697.61 422.53 681.47 409.32 666.4 396.36 652.96 383.63 641.53 371.13 632.4 358.82 625.66 346.69 621.24 334.7 618.91 322.8 618.31 310.95 618.94 311.04 604.72 311.23 590.51 311.5 576.29 311.82 562.07 312.15 547.86 312.47 533.64 312.74 519.43 312.93 505.21 313.02 490.99 313.01 476.78 312.9 462.56 312.69 448.34 312.42 434.13 312.09 419.91 311.76 405.7 311.45 391.48 311.19 377.26 311.02 363.05 310.94 348.83 310.97 334.61 311.1 320.4 311.32 306.18 311.61 291.96 311.94 277.75 312.27 263.53 312.57 249.31 312.82 235.1 312.97 220.88 313.03 206.66 312.99 192.45 312.84 178.23 312.6 164.01 325.2 153.19 337.61 143.13 349.81 134 361.82 125.91 373.63 118.88 385.27 112.87 396.76 107.76 408.15 103.37 419.47 99.47 430.79 95.83 442.14 92.18 453.59 88.27 465.19 83.89 477 78.84 489.05 73.02 501.4 66.35 514.08 58.83 527.1 50.52 540.49 41.53 554.23 32.03 568.32 22.19 582.73 12.21 597.41 2.31 612.32 -7.33 627.4 -16.56 642.57 -25.25 657.76 -33.32 672.88 -40.74 687.85 -47.54 702.57 -53.78 723.98 -62.27 730.98 -64.99" stroke-dasharray="1 2" transform="rotate(31.07692307692308, 711, 400)" opacity="0.41"></path><path d="M725.84 -41.22Q735.7 -32.53 745.13 -23.54 754.17 -14.38 762.86 -5.2 771.28 3.83 779.5 12.57 787.6 20.88 795.66 28.63 803.8 35.74 812.09 42.15 820.65 47.86 829.55 52.92 838.89 57.4 848.76 61.45 859.21 65.23 870.3 68.91 882.08 72.72 894.58 76.84 907.8 81.47 921.74 86.77 936.37 92.87 951.64 99.83 967.5 107.69 983.85 116.4 1000.62 125.87 1017.69 135.95 1034.94 146.46 1052.25 157.17 1069.49 167.83 1086.51 178.19 1103.2 188.01 1119.42 197.09 1125.28 211.18 1127.82 225.28 1126.83 239.37 1122.39 253.47 1114.9 267.57 1105.05 281.66 1093.74 295.76 1081.99 309.86 1070.88 323.95 1061.42 338.05 1054.47 352.15 1050.67 366.24 1050.36 380.34 1053.58 394.44 1060.02 408.53 1069.1 422.63 1080 436.73 1091.71 450.82 1103.18 464.92 1113.35 479.02 1121.3 493.11 1126.31 507.21 1127.91 521.31 1125.96 535.4 1120.64 549.5 1112.44 563.6 1102.09 577.69 1090.56 591.79 1078.87 605.89 1068.11 619.98 1059.26 634.08 1053.11 648.18 1039.99 651.18 1027.76 652.46 1016.41 652.35 1005.9 651.27 996.17 649.71 987.16 648.19 971.12 648.12 956.31 652.51 949.34 658.12 942.42 665.93 935.44 675.93 928.29 687.93 920.86 701.63 913.05 716.63 904.79 732.41 896.01 748.43 886.64 764.11 876.67 778.87 866.06 792.19 854.81 803.66 842.94 812.95 830.47 819.87 817.45 824.39 803.92 826.62 789.96 826.82 775.63 825.4 761.01 822.84 746.19 819.73 731.25 816.69 716.28 814.35 707.17 800.02 697.71 787.64 687.87 777.52 677.61 769.86 666.93 764.66 655.81 761.8 644.26 760.99 632.3 761.85 619.97 763.86 607.29 766.46 594.32 769.05 581.1 771.04 567.7 771.89 554.16 771.13 540.56 768.41 526.95 763.49 513.38 756.29 499.9 746.86 486.55 735.39 473.39 722.2 460.42 707.72 447.68 692.44 435.17 676.91 422.9 661.67 410.86 647.24 399.04 634.09 387.41 622.6 375.95 613.03 364.63 605.54 353.4 600.12 342.23 596.67 331.08 594.94 331.4 581.65 331.87 568.37 332.45 555.08 333.07 541.8 333.68 528.51 334.23 515.23 334.67 501.94 334.95 488.66 335.06 475.37 334.97 462.09 334.71 448.81 334.28 435.52 333.74 422.24 333.13 408.95 332.51 395.67 331.93 382.38 331.44 369.1 331.1 355.81 330.93 342.53 330.95 329.25 331.15 315.96 331.52 302.68 332.02 289.39 332.61 276.11 333.24 262.82 333.84 249.54 334.36 236.26 334.76 222.97 335 209.69 335.05 196.4 334.92 183.12 334.6 169.84 346.59 160.74 358.42 152.59 370.05 145.45 381.49 139.31 392.74 134.09 403.79 129.67 414.68 125.87 425.42 122.47 436.03 119.26 446.57 115.99 457.07 112.45 467.58 108.44 478.15 103.8 488.83 98.41 499.67 92.21 510.71 85.19 522.01 77.4 533.59 68.93 545.49 59.9 557.74 50.47 570.34 40.84 583.31 31.19 596.62 21.69 610.27 12.51 624.22 3.78 638.43 -4.38 652.85 -11.93 667.43 -18.85 682.09 -25.16 696.76 -30.93 718.6 -38.73 725.84 -41.22" stroke-dasharray="3 3" transform="rotate(34.96153846153846, 711, 400)" opacity="0.55"></path><path d="M716.49 -17.45Q724.85 -9.07 732.99 -0.39 740.99 8.44 748.9 17.32 756.8 26.09 764.77 34.6 772.87 42.73 781.2 50.36 789.81 57.39 798.78 63.78 808.18 69.48 818.05 74.53 828.46 78.98 839.43 82.92 851 86.48 863.17 89.81 875.95 93.09 889.31 96.5 903.24 100.22 917.7 104.42 932.62 109.24 947.95 114.81 963.59 121.19 979.48 128.41 995.5 136.45 1011.56 145.26 1027.55 154.71 1043.38 164.64 1058.92 174.88 1074.07 185.21 1088.75 195.41 1102.85 205.26 1105.64 218.45 1105.36 231.65 1102.04 244.84 1095.96 258.04 1087.59 271.23 1077.63 284.42 1066.89 297.62 1056.24 310.81 1046.54 324.01 1038.59 337.2 1033.03 350.4 1030.32 363.59 1030.68 376.78 1034.07 389.98 1040.22 403.17 1048.64 416.37 1058.63 429.56 1069.38 442.76 1080.02 455.95 1089.68 469.14 1097.58 482.34 1103.06 495.53 1105.7 508.73 1105.26 521.92 1101.8 535.12 1095.58 548.31 1087.11 561.51 1077.09 574.7 1066.33 587.9 1055.71 601.09 1046.08 614.28 1038.24 627.48 1024.51 627.84 1011.52 627.25 999.28 626.09 987.8 624.78 977.07 623.76 967.05 623.46 957.69 624.27 948.94 626.52 940.73 630.48 932.97 636.3 925.6 644.04 918.5 653.67 911.58 665.02 904.76 677.84 897.92 691.79 890.99 706.45 883.88 721.38 876.49 736.09 868.77 750.11 860.66 763.01 852.09 774.41 843.04 784 833.47 791.59 823.37 797.08 812.75 800.5 801.6 802 789.96 801.83 777.85 800.35 765.32 797.98 752.41 795.23 739.19 792.59 725.7 790.59 715.99 777.17 705.86 765.43 695.31 755.64 684.34 747.98 672.97 742.47 661.23 739.05 649.15 737.52 636.78 737.58 624.15 738.85 611.32 740.89 598.35 743.2 585.28 745.3 572.17 746.72 559.08 747.01 546.04 745.83 533.1 742.89 520.31 738.03 507.69 731.17 495.27 722.38 483.08 711.8 471.12 699.69 459.39 686.38 447.9 672.29 436.63 657.84 425.57 643.49 414.69 629.68 403.97 616.81 393.37 605.23 382.87 595.21 372.42 586.93 362 580.46 351.56 575.78 352.2 563.34 352.99 550.9 353.86 538.46 354.74 526.02 355.56 513.58 356.25 501.14 356.76 488.7 357.04 476.26 357.07 463.82 356.86 451.38 356.41 438.94 355.77 426.5 354.98 414.07 354.11 401.63 353.23 389.19 352.41 376.75 351.73 364.31 351.22 351.87 350.95 339.43 350.92 326.99 351.14 314.55 351.59 302.11 352.24 289.67 353.03 277.23 353.9 264.8 354.78 252.36 355.6 239.92 356.28 227.48 356.78 215.04 357.05 202.6 357.07 190.16 356.84 177.72 368.26 170.7 379.53 164.62 390.64 159.45 401.57 155.08 412.31 151.38 422.86 148.17 433.22 145.26 443.41 142.44 453.43 139.5 463.33 136.26 473.11 132.54 482.83 128.2 492.52 123.15 502.23 117.33 511.99 110.72 521.86 103.38 531.88 95.36 542.09 86.79 552.54 77.8 563.26 68.56 574.28 59.22 585.63 49.96 597.32 40.93 609.37 32.27 621.77 24.09 634.51 16.47 647.58 9.46 660.94 3.05 674.56 -2.76 688.4 -8.05 709.44 -15.19 716.49 -17.45" stroke-dasharray="0 4" transform="rotate(38.84615384615385, 711, 400)" opacity="0.96"></path><path d="M705.58 6.29Q713.28 14.35 720.99 22.69 728.79 31.2 736.73 39.75 744.86 48.22 753.26 56.49 761.96 64.42 771.03 71.91 780.49 78.86 790.4 85.22 800.78 90.95 811.65 96.04 823.02 100.52 834.89 104.45 847.25 107.92 860.1 111.06 873.38 113.99 887.08 116.89 901.13 119.9 915.49 123.19 930.07 126.91 944.82 131.19 959.66 136.14 974.5 141.83 989.26 148.31 1003.86 155.58 1018.21 163.6 1032.23 172.28 1045.84 181.51 1058.97 191.14 1071.55 201.01 1083.54 210.92 1083.54 223.17 1080.9 235.42 1075.81 247.67 1068.65 259.92 1059.92 272.16 1050.26 284.41 1040.36 296.66 1030.95 308.91 1022.69 321.16 1016.18 333.4 1011.9 345.65 1010.15 357.9 1011.06 370.15 1014.56 382.4 1020.4 394.64 1028.16 406.89 1037.28 419.14 1047.1 431.39 1056.91 443.63 1066.01 455.88 1073.74 468.13 1079.53 480.38 1082.98 492.63 1083.83 504.87 1082.03 517.12 1077.69 529.37 1071.14 541.62 1062.85 553.86 1053.42 566.11 1043.52 578.36 1033.87 590.61 1025.17 602.85 1011.23 602.01 997.85 600.96 985.06 600.08 972.89 599.71 961.36 600.17 950.47 601.77 940.2 604.75 930.53 609.26 921.43 615.43 912.86 623.25 904.76 632.66 897.08 643.53 889.74 655.62 882.67 668.64 875.81 682.27 869.08 696.12 862.4 709.82 855.69 722.97 848.89 735.21 841.92 746.22 834.73 755.75 827.26 763.59 819.47 769.63 811.3 773.87 802.74 776.35 793.76 777.26 784.34 776.81 774.49 775.33 764.2 773.18 753.5 770.77 742.41 768.51 730.95 766.82 720.39 754.3 709.46 743.21 698.18 733.8 686.58 726.21 674.71 720.49 662.61 716.61 650.31 714.43 637.87 713.74 625.34 714.26 612.76 715.66 600.18 717.54 587.65 719.51 575.2 721.17 562.88 722.14 550.72 722.08 538.74 720.71 526.97 717.81 515.42 713.24 504.1 706.96 493.01 698.98 482.15 689.44 471.52 678.51 461.1 666.47 450.86 653.61 440.79 640.3 430.86 626.89 421.05 613.74 411.31 601.22 401.63 589.62 391.96 579.21 382.28 570.19 372.56 562.69 373.53 551 374.61 539.31 375.71 527.63 376.77 515.94 377.69 504.25 378.42 492.56 378.91 480.87 379.11 469.19 379.01 457.5 378.63 445.81 377.98 434.12 377.12 422.43 376.1 410.75 375.01 399.06 373.91 387.37 372.89 375.68 372.02 363.99 371.37 352.31 370.98 340.62 370.88 328.93 371.07 317.24 371.55 305.55 372.28 293.87 373.2 282.18 374.25 270.49 375.36 258.8 376.44 247.11 377.41 235.43 378.21 223.74 378.78 212.05 379.08 200.36 379.08 188.67 389.96 183.73 400.72 179.56 411.35 176.05 421.82 173.05 432.11 170.4 442.22 167.93 452.14 165.44 461.88 162.76 471.43 159.73 480.82 156.21 490.05 152.08 499.16 147.26 508.16 141.71 517.09 135.43 525.99 128.46 534.89 120.85 543.83 112.7 552.86 104.13 562.01 95.29 571.33 86.32 580.86 77.36 590.63 68.57 600.67 60.08 611.01 51.99 621.67 44.39 632.66 37.34 644 30.88 655.68 25 667.7 19.67 680.04 14.83 699.13 8.35 705.58 6.29" stroke-dasharray="0 2" transform="rotate(42.73076923076923, 711, 400)" opacity="0.42"></path><path d="M696.21 30.05Q703.99 37.76 711.98 45.74 720.2 53.88 728.7 62.08 737.52 70.23 746.68 78.21 756.21 85.92 766.14 93.25 776.46 100.11 787.21 106.44 798.36 112.2 809.92 117.35 821.86 121.91 834.18 125.91 846.82 129.41 859.77 132.49 872.96 135.26 886.37 137.84 899.92 140.36 913.56 142.98 927.23 145.82 940.86 149.02 954.4 152.7 967.76 156.97 980.89 161.9 993.72 167.55 1006.19 173.93 1018.26 181.03 1029.86 188.8 1040.96 197.17 1051.53 206.03 1061.53 215.25 1059.19 226.55 1054.75 237.85 1048.49 249.15 1040.8 260.45 1032.16 271.75 1023.14 283.05 1014.3 294.35 1006.2 305.65 999.36 316.95 994.2 328.25 991.07 339.55 990.15 350.85 991.51 362.15 995.05 373.45 1000.56 384.75 1007.68 396.05 1015.97 407.35 1024.89 418.65 1033.88 429.95 1042.37 441.25 1049.82 452.55 1055.76 463.85 1059.81 475.15 1061.72 486.45 1061.36 497.76 1058.75 509.06 1054.06 520.36 1047.6 531.66 1039.76 542.96 1031.05 554.26 1022.01 565.56 1013.23 576.86 999.5 576.2 986.13 575.95 973.19 576.39 960.7 577.75 948.71 580.23 937.23 584 926.27 589.16 915.84 595.73 905.94 603.71 896.55 613.01 887.64 623.49 879.19 634.94 871.17 647.14 863.51 659.79 856.19 672.6 849.14 685.25 842.32 697.44 835.65 708.87 829.09 719.28 822.58 728.45 809.39 741.68 795.85 750.29 781.25 751.91 765.79 750.38 757.5 748.45 748.87 746.37 739.88 744.46 730.54 743.06 719.32 731.42 707.87 721.01 696.21 712.01 684.4 704.56 672.47 698.71 660.47 694.46 648.44 691.72 636.42 690.35 624.45 690.14 612.57 690.85 600.81 692.19 589.2 693.83 577.76 695.47 566.52 696.77 555.49 697.44 544.69 697.21 534.11 695.85 523.76 693.19 513.64 689.11 503.73 683.56 494.03 676.55 484.51 668.16 475.15 658.52 465.94 647.81 456.84 636.28 447.83 624.18 438.89 611.81 429.98 599.46 421.07 587.41 412.15 575.95 403.19 565.31 394.16 555.7 395.42 544.68 396.72 533.66 397.97 522.64 399.09 511.62 400.02 500.6 400.69 489.58 401.07 478.56 401.12 467.54 400.85 456.52 400.27 445.5 399.41 434.48 398.34 423.46 397.13 412.44 395.84 401.42 394.56 390.4 393.37 379.38 392.35 368.36 391.56 357.34 391.05 346.32 390.85 335.3 390.98 324.28 391.43 313.26 392.17 302.24 393.16 291.22 394.32 280.2 395.59 269.18 396.88 258.16 398.12 247.14 399.22 236.12 400.12 225.1 400.76 214.08 401.09 203.06 411.46 199.87 421.74 197.17 431.91 194.81 441.95 192.65 451.85 190.52 461.57 188.27 471.13 185.75 480.5 182.84 489.69 179.41 498.69 175.38 507.52 170.7 516.18 165.34 524.69 159.29 533.07 152.61 541.34 145.34 549.52 137.57 557.66 129.41 565.77 120.97 573.91 112.39 582.09 103.8 590.36 95.32 598.76 87.07 607.33 79.17 616.08 71.69 625.07 64.7 634.31 58.25 643.84 52.35 653.66 46.99 663.81 42.15 674.28 37.76 690.64 31.9 696.21 30.05" stroke-dasharray="1 0" transform="rotate(46.61538461538462, 711, 400)" opacity="0.73"></path><path d="M691.02 53.82Q699.36 61.16 707.98 68.75 716.89 76.5 726.12 84.32 735.68 92.11 745.56 99.79 755.79 107.23 766.34 114.37 777.21 121.11 788.39 127.39 799.86 133.16 811.59 138.38 823.55 143.05 835.71 147.17 848.02 150.78 860.46 153.92 872.96 156.68 885.49 159.14 897.98 161.41 910.41 163.6 922.7 165.83 934.82 168.22 946.7 170.89 958.32 173.95 969.61 177.49 980.55 181.6 991.09 186.34 1001.21 191.74 1010.88 197.8 1020.08 204.53 1028.79 211.87 1037.02 219.76 1032.93 230.15 1027.3 240.54 1020.43 250.93 1012.71 261.32 1004.57 271.71 996.44 282.1 988.79 292.49 982.04 302.88 976.55 313.27 972.64 323.66 970.52 334.05 970.31 344.44 972.01 354.83 975.54 365.22 980.7 375.6 987.21 385.99 994.7 396.38 1002.75 406.77 1010.93 417.16 1018.79 427.55 1025.88 437.94 1031.81 448.33 1036.26 458.72 1038.98 469.11 1039.82 479.5 1038.74 489.89 1035.79 500.28 1031.13 510.66 1025.03 521.05 1017.82 531.44 1009.9 541.83 1001.71 552.22 988.56 552.83 975.61 554.24 962.92 556.6 950.53 560.04 938.46 564.65 926.77 570.45 915.47 577.46 904.58 585.62 894.13 594.84 884.1 604.96 874.51 615.83 865.34 627.24 856.59 638.95 848.24 650.73 840.26 662.32 832.62 673.49 825.29 684 818.24 693.64 811.41 702.25 804.78 709.67 791.95 719.99 779.28 726.4 766.47 727.15 753.33 725.47 739.31 722.1 724.59 719.29 713.25 708.53 701.83 698.8 690.38 690.25 678.94 683 667.53 677.11 656.18 672.59 644.95 669.39 633.84 667.41 622.88 666.53 612.1 666.55 601.51 667.27 591.12 668.44 580.95 669.83 571 671.17 561.27 672.2 551.76 672.7 542.47 672.45 533.37 671.26 524.46 668.99 515.72 665.54 507.14 660.84 498.69 654.89 490.35 647.74 482.1 639.45 473.91 630.17 465.76 620.05 457.62 609.29 449.48 598.1 441.3 586.71 433.08 575.35 424.79 564.26 416.41 553.65 417.86 543.24 419.27 532.84 420.54 522.43 421.62 512.02 422.45 501.61 422.97 491.21 423.16 480.8 423.01 470.39 422.53 459.99 421.74 449.58 420.69 439.17 419.44 428.76 418.05 418.36 416.6 407.95 415.17 397.54 413.85 387.14 412.69 376.73 411.78 366.32 411.16 355.91 410.85 345.51 410.89 335.1 411.27 324.69 411.96 314.28 412.93 303.88 414.13 293.47 415.48 283.06 416.92 272.65 418.36 262.25 419.73 251.84 420.94 241.43 427.24 224.81 442.33 216.75 452.06 214.94 461.69 213.03 471.2 210.89 480.57 208.41 489.8 205.5 498.86 202.06 507.76 198.03 516.48 193.39 525.02 188.12 533.38 182.24 541.57 175.77 549.59 168.78 557.46 161.35 565.18 153.57 572.79 145.54 580.29 137.36 587.72 129.17 595.1 121.06 602.46 113.14 609.83 105.5 617.25 98.24 624.74 91.4 632.34 85.05 640.08 79.21 647.99 73.87 656.1 69.04 664.43 64.68 673.02 60.73 686.44 55.48 691.02 53.82" stroke-dasharray="3 1" transform="rotate(50.5, 711, 400)" opacity="0.23"></path><path d="M691.49 77.59Q700.45 84.54 709.67 91.71 719.16 99.05 728.91 106.46 738.92 113.87 749.17 121.2 759.66 128.35 770.35 135.26 781.24 141.84 792.29 148.04 803.49 153.79 814.78 159.07 826.15 163.85 837.56 168.12 848.98 171.89 860.35 175.19 871.66 178.06 882.85 180.57 893.89 182.78 904.74 184.79 915.37 186.68 925.75 188.56 935.83 190.53 945.61 192.68 955.04 195.12 964.12 197.94 972.81 201.21 981.12 205 989.04 209.36 996.56 214.31 1004.44 227.72 998.98 245.11 992.04 254.65 984.72 264.19 977.36 273.73 970.32 283.27 963.93 292.81 958.5 302.35 954.29 311.89 951.49 321.43 950.25 330.97 950.61 340.51 952.57 350.05 956.03 359.59 960.83 369.14 966.73 378.68 973.45 388.22 980.68 397.76 988.06 407.3 995.26 416.84 1001.91 426.38 1007.71 435.92 1012.38 445.46 1015.69 455 1017.49 464.54 1017.69 474.08 1016.28 483.62 1013.33 493.16 1008.98 502.7 1003.44 512.24 996.97 521.78 989.88 531.32 977.65 533.82 965.49 537.24 953.43 541.65 941.52 547.06 929.8 553.48 918.3 560.88 907.06 569.17 896.09 578.25 885.44 588.01 875.1 598.28 865.1 608.9 855.45 619.67 846.15 630.41 837.21 640.93 828.6 651.03 820.34 660.54 812.4 669.3 804.77 677.18 790.46 689.34 776.86 698.2 764.14 701.77 751.75 702.65 739.59 700.52 727.36 697.71 721.13 696.42 714.79 695.53 704 685.62 693.29 676.58 682.67 668.52 672.18 661.53 661.83 655.68 651.64 650.98 641.63 647.42 631.82 644.93 622.2 643.43 612.8 642.79 603.6 642.87 594.61 643.49 577.34 645.57 560.65 647.54 544.78 647.41 529.31 645.08 514.31 638.03 499.46 627.86 492.08 620.99 484.69 613.2 477.28 604.59 469.82 595.29 462.3 585.45 454.71 575.24 447.02 564.83 439.25 554.42 440.76 544.61 442.13 534.79 443.31 524.98 444.24 515.17 444.86 505.35 445.16 495.54 445.12 485.72 444.74 475.91 444.03 466.1 443.04 456.28 441.81 446.47 440.39 436.66 438.86 426.84 437.29 417.03 435.75 407.22 434.32 397.4 433.07 387.59 432.05 377.78 431.31 367.96 430.89 358.15 430.82 348.34 431.08 338.53 431.68 328.71 432.57 318.9 433.73 309.09 435.09 299.27 436.58 289.46 438.15 279.65 439.71 269.83 441.18 260.02 447.73 244.53 462.26 237.22 471.53 235.35 480.73 233.18 489.85 230.61 498.87 227.57 507.77 224.01 516.55 219.89 525.19 215.21 533.67 209.96 541.99 204.16 550.14 197.86 558.13 191.11 565.94 183.98 573.58 176.56 581.05 168.92 588.37 161.17 595.53 153.4 602.57 145.71 609.48 138.18 616.29 130.89 623.02 123.93 629.7 117.34 636.34 111.18 649.65 100.47 663.1 91.15 684.27 80.74 691.49 77.59" stroke-dasharray="2 2" transform="rotate(54.38461538461538, 711, 400)" opacity="0.83"></path><path d="M697.49 101.36Q706.77 107.89 716.23 114.63 725.87 121.53 735.67 128.5 745.61 135.5 755.68 142.45 765.84 149.27 776.09 155.9 786.4 162.28 796.73 168.34 807.07 174.04 817.38 179.34 827.64 184.2 837.82 188.61 847.89 192.56 857.82 196.07 867.59 199.14 877.17 201.82 886.53 204.15 895.66 206.19 912.98 209.62 929.44 212.84 944.35 216.54 958.31 221 973.62 235.75 970.26 252.84 963.7 261.61 957.1 270.37 950.75 279.14 944.9 287.9 939.78 296.67 935.6 305.43 932.55 314.19 930.73 322.96 930.22 331.72 931.05 340.49 933.17 349.25 936.52 358.02 940.93 366.78 946.25 375.55 952.25 384.31 958.68 393.08 965.29 401.84 971.81 410.6 977.97 419.37 983.52 428.13 988.23 436.9 991.92 445.66 994.43 454.43 995.66 463.19 995.56 471.96 994.14 480.72 991.44 489.49 987.59 498.25 982.74 507.02 977.09 515.78 966.03 520.24 954.93 525.53 943.82 531.66 932.75 538.57 921.75 546.22 910.83 554.53 900.05 563.39 889.42 572.69 878.97 582.29 868.72 592.07 858.7 601.87 848.92 611.55 839.39 620.95 830.13 629.95 821.15 638.4 812.44 646.2 804.02 653.24 795.87 659.44 780.52 668.7 765.93 675.2 752.47 677.5 739.58 677.74 727.41 675.8 715.54 673.45 709.71 672.44 703.91 671.76 694.3 662.71 684.85 654.36 675.57 646.81 666.47 640.15 657.56 634.42 648.85 629.64 632.1 623.35 615.94 619.64 600.68 619.33 585.91 620.32 571.81 622.01 558.03 623.23 544.6 622.26 531.28 619.3 517.96 612.32 504.54 602.75 497.75 596.49 490.88 589.46 483.93 581.74 476.89 573.42 469.76 564.61 462.52 555.44 463.93 546.24 465.15 537.03 466.11 527.83 466.79 518.63 467.14 509.42 467.17 500.22 466.86 491.01 466.23 481.81 465.31 472.61 464.13 463.4 462.74 454.2 461.19 444.99 459.56 435.79 457.9 426.59 456.29 417.38 454.79 408.18 453.46 398.98 452.35 389.77 451.51 380.57 450.98 371.37 450.77 362.16 450.9 352.96 451.36 343.75 452.12 334.55 453.17 325.35 454.45 316.14 455.92 306.94 457.51 297.74 459.16 288.53 460.81 279.33 467.48 264.68 481.36 257.23 490.12 254.85 498.85 252.04 507.54 248.77 516.16 245 524.71 240.71 533.17 235.92 541.53 230.64 549.77 224.89 557.88 218.72 565.85 212.19 573.68 205.35 581.35 198.28 588.86 191.04 596.22 183.73 603.41 176.42 610.43 169.18 617.3 162.1 624.02 155.23 630.59 148.65 637.03 142.39 649.5 131.25 661.69 121.35 673.61 113.51 685.49 106.78 694.48 102.65 697.49 101.36" stroke-dasharray="4 1" transform="rotate(58.26923076923077, 711, 400)" opacity="0.23"></path><path d="M707.32 125.12Q725.54 137.51 744.01 150.45 762.6 163.53 781.14 176.28 799.48 188.28 817.45 199.13 834.9 208.55 851.68 216.38 867.67 222.62 882.77 227.41 896.9 231.05 910.03 233.94 922.16 236.59 933.33 239.53 943.61 243.29 953.13 248.35 941.6 264.46 930.13 280.57 920.27 296.67 913.35 312.78 910.33 328.89 911.6 345 916.99 361.11 925.78 377.22 936.76 393.33 948.46 409.44 959.28 425.55 967.75 441.66 972.73 457.76 973.54 473.87 970.07 489.98 962.79 506.09 943.22 518.74 923.34 533.65 903.35 550.25 883.46 567.79 863.86 585.41 844.71 602.22 826.16 617.42 808.34 630.32 791.33 640.43 775.17 647.55 759.89 651.72 745.47 653.29 731.87 652.85 719 651.2 706.76 649.25 695.04 647.99 679.13 632.13 663.93 618.84 649.43 608.54 635.59 601.36 622.34 597.13 609.58 595.43 597.23 595.58 585.16 596.76 573.25 598.06 561.4 598.6 549.49 597.54 537.41 594.26 525.09 588.31 512.44 579.54 499.44 568.04 486.03 554.15 488.15 537.05 489.16 519.95 488.93 502.85 487.48 485.75 485.01 468.65 481.87 451.56 478.46 434.46 475.27 417.36 472.71 400.26 471.14 383.16 470.77 366.06 471.65 348.96 473.67 331.86 476.53 314.76 479.87 297.66 483.22 280.56 499.56 275.5 515.95 268.74 532.29 260.2 548.47 249.93 564.41 238.19 580 225.33 595.16 211.82 609.82 198.15 623.92 184.83 637.42 172.32 650.33 160.96 662.64 151.01 674.42 142.56 685.73 135.57 701.99 127.49 707.32 125.12" stroke-dasharray="3 4" transform="rotate(62.15384615384616, 711, 400)" opacity="0.97"></path><path d="M718.19 148.89Q734.75 160.34 751.2 172.31 767.42 184.45 783.29 196.41 798.71 207.84 813.59 218.4 827.83 227.84 841.38 235.97 854.18 242.7 866.21 248.07 877.46 252.19 887.95 255.32 897.75 257.78 906.9 259.94 914.49 271.06 904.03 294.66 896.51 309.44 891.75 324.23 890.27 339.01 892.24 353.79 897.45 368.57 905.3 383.36 914.91 398.14 925.21 412.92 935.03 427.7 943.28 442.49 949.02 457.27 951.62 472.05 950.77 486.84 946.58 501.62 929.77 515.68 912.49 530.9 894.88 546.69 877.08 562.41 859.25 577.44 841.52 591.17 824.02 603.1 806.88 612.84 790.19 620.2 774.05 625.14 758.52 627.84 743.64 628.62 729.43 628.01 715.88 626.61 702.99 625.11 690.7 624.22 678.02 609.89 665.89 597.59 654.26 587.65 643.04 580.23 632.15 575.26 621.5 572.51 610.98 571.56 600.51 571.87 590 572.8 579.35 573.71 568.51 573.92 557.39 572.85 545.96 570.03 534.19 565.11 522.04 557.93 509.53 548.51 510.93 532.84 511.21 517.16 510.34 501.49 508.43 485.81 505.67 470.14 502.39 454.46 498.95 438.79 495.74 423.12 493.12 407.44 491.39 391.77 490.73 376.09 491.22 360.42 492.81 344.75 495.32 329.07 498.47 313.4 501.89 297.72 516.88 290.97 532 282.66 547.18 272.92 562.34 261.94 577.41 250.01 592.3 237.51 606.93 224.83 621.23 212.37 635.12 200.5 648.56 189.53 661.49 179.7 673.89 171.14 685.74 163.9 697.06 157.89 713.02 150.93 718.19 148.89" stroke-dasharray="2 1" transform="rotate(66.03846153846153, 711, 400)" opacity="0.72"></path><path d="M727.02 172.66Q741.08 183.14 754.81 194.07 768.13 205.21 781 216.28 793.35 227.01 805.16 237.14 816.39 246.43 827.04 254.7 837.1 261.83 846.6 267.78 855.57 272.56 864.06 276.28 879.73 281.1 894.65 284.82 886.17 298.31 878.95 311.8 873.65 325.29 870.75 338.79 870.51 352.28 872.97 365.77 877.89 379.27 884.82 392.76 893.14 406.26 902.08 419.75 910.83 433.24 918.59 446.74 924.66 460.23 928.48 473.72 929.71 487.22 928.22 500.71 914.17 514.55 899.6 528.59 884.6 542.39 869.26 555.49 853.68 567.48 837.96 578.02 822.21 586.85 806.51 593.8 790.96 598.84 775.65 602.05 760.65 603.64 746.02 603.9 731.82 603.24 718.09 602.11 704.84 601.01 692.1 600.45 682.2 587.63 672.59 576.39 663.21 566.98 653.98 559.53 644.83 554.05 635.69 550.43 626.47 548.44 617.13 547.75 607.6 547.95 597.83 548.59 587.78 549.21 577.42 549.32 566.74 548.51 555.72 546.42 544.38 542.77 532.7 537.39 533.27 523.25 532.81 509.12 531.35 494.99 529.05 480.86 526.1 466.73 522.78 452.6 519.38 438.47 516.22 424.34 513.59 410.21 511.72 396.08 510.79 381.95 510.88 367.82 511.98 353.68 513.99 339.55 516.73 325.42 519.96 311.29 533.45 303.04 547.13 293.63 560.94 283.27 574.84 272.19 588.78 260.68 602.68 249.04 616.48 237.59 630.13 226.6 643.55 216.33 656.69 206.97 669.48 198.66 681.9 191.46 693.88 185.37 705.41 180.3 721.74 174.4 727.02 172.66" stroke-dasharray="3 2" transform="rotate(69.92307692307692, 711, 400)" opacity="0.26"></path><path d="M731.31 196.43Q742.51 205.89 753.32 215.74 763.73 225.82 773.72 235.91 783.28 245.81 792.41 255.32 801.13 264.26 809.44 272.46 817.37 279.81 824.98 286.22 839.27 295.64 853.02 302.37 859.92 311.36 855.02 330.46 851.69 342.65 850.33 354.84 851.04 367.02 853.76 379.21 858.31 391.4 864.34 403.59 871.44 415.78 879.08 427.97 886.71 440.16 893.79 452.35 899.8 464.54 904.31 476.72 906.99 488.91 907.65 501.1 896.2 513.28 884.27 525.04 871.91 536.09 859.17 546.17 846.1 555.06 832.77 562.59 819.24 568.68 805.57 573.31 791.84 576.51 778.1 578.42 764.42 579.23 750.87 579.18 737.49 578.56 724.34 577.71 711.45 576.97 698.86 576.69 690.94 565.37 683.06 555.24 675.18 546.49 667.25 539.22 659.21 533.48 651.02 529.23 642.64 526.35 634.04 524.67 625.18 523.96 616.06 523.93 606.64 524.28 596.94 524.69 586.94 524.82 576.65 524.38 566.09 523.1 555.28 520.76 555 508.26 553.84 495.77 551.91 483.27 549.33 470.77 546.3 458.28 543.02 445.78 539.74 433.28 536.7 420.78 534.11 408.29 532.16 395.79 530.99 383.29 530.69 370.79 531.27 358.3 532.7 345.8 534.87 333.3 537.63 320.8 549.51 311.68 561.59 301.9 573.85 291.65 586.26 281.15 598.78 270.63 611.38 260.3 624.01 250.39 636.62 241.06 649.17 232.47 661.61 224.73 673.89 217.89 685.95 211.99 697.77 206.98 709.29 202.8 725.9 197.88 731.31 196.43" stroke-dasharray="2 1" transform="rotate(73.8076923076923, 711, 400)" opacity="0.18"></path><path d="M729.84 220.19Q738.34 228.59 746.53 237.33 754.42 246.28 762.02 255.29 769.34 264.24 776.4 272.96 783.22 281.34 789.83 289.24 796.27 296.54 802.56 303.17 814.89 313.77 827.17 322.04 834.4 331.41 832.3 348.76 830.62 359.58 830.44 370.41 831.8 381.23 834.6 392.06 838.7 402.88 843.86 413.7 849.81 424.53 856.21 435.35 862.71 446.18 868.95 457 874.58 467.83 879.29 478.65 882.83 489.48 884.99 500.3 875.88 509.89 866.39 518.77 856.52 526.81 846.31 533.89 835.78 539.92 824.95 544.87 813.87 548.72 802.56 551.53 791.08 553.38 779.46 554.38 767.73 554.69 755.95 554.5 744.15 554 732.38 553.43 720.67 553 709.06 552.93 702.27 543.1 695.38 534.13 688.34 526.17 681.13 519.28 673.72 513.52 666.11 508.9 650.06 503.29 633.27 500.32 624.45 499.99 615.39 500.02 606.1 500.22 596.59 500.36 581.42 494.54 574.25 478.03 571.98 467.22 569.26 456.4 566.26 445.59 563.13 434.77 560.04 423.95 557.18 413.14 554.69 402.32 552.71 391.51 551.36 380.69 550.71 369.88 550.79 359.06 551.6 348.24 553.1 337.43 555.2 326.61 565.37 317.51 575.74 308.18 586.3 298.79 597.02 289.49 607.9 280.42 618.91 271.74 630.04 263.56 641.24 255.98 652.49 249.08 663.76 242.9 675.01 237.46 686.22 232.76 697.34 228.76 708.34 225.39 724.51 221.38 729.84 220.19" stroke-dasharray="3 2" transform="rotate(77.6923076923077, 711, 400)" opacity="0.70"></path><path d="M723.03 243.95Q729.37 251.26 735.52 258.84 741.52 266.61 747.38 274.47 753.11 282.34 758.73 290.11 764.27 297.71 769.76 305.03 780.66 318.28 791.63 330.05 802.99 338.98 814.74 346.11 812.25 355.49 810.77 364.87 810.36 374.24 811.03 383.62 812.76 393 815.48 402.37 819.07 411.75 823.39 421.13 828.26 430.51 833.49 439.88 838.86 449.26 844.16 458.64 849.16 468.02 853.67 477.4 855.46 494.79 846.05 508.78 838.42 514 830.51 518.44 822.34 522.11 813.92 525.02 805.26 527.2 796.38 528.71 787.3 529.64 778.03 530.07 768.6 530.12 759.03 529.91 749.34 529.57 739.56 529.24 729.7 529.06 719.81 529.16 713.55 520.8 707.13 513.05 700.52 505.98 693.72 499.66 679.43 489.82 664.54 482.38 648.7 478.52 632.32 476.38 615.17 476.01 597.65 475.98 596.04 466.84 593.97 457.71 591.54 448.58 588.85 439.45 585.99 430.31 583.1 421.18 580.28 412.05 577.65 402.91 575.32 393.78 573.39 384.65 571.93 375.52 570.99 366.39 570.63 357.25 570.85 348.12 571.65 338.99 572.99 329.86 581.42 321.66 590.02 313.55 598.79 305.62 607.71 297.97 616.79 290.67 626.01 283.8 635.37 277.42 644.85 271.57 654.44 266.28 664.13 261.57 673.88 257.41 683.69 253.81 693.53 250.72 703.39 248.09 718.13 244.9 723.03 243.95" stroke-dasharray="1 1" transform="rotate(81.57692307692308, 711, 400)" opacity="0.88"></path><path d="M712.81 267.72Q722.44 280.28 731.9 293.45 741.3 306.81 750.77 319.9 760.41 332.28 770.36 343.55 780.72 353.39 791.62 361.59 790.38 377.29 792.03 393 796.37 408.7 802.91 424.4 810.92 440.11 819.51 455.81 827.7 471.52 834.57 487.22 823.61 494.65 811.94 499.99 799.56 503.39 786.47 505.14 772.71 505.65 758.34 505.46 743.43 505.17 728.06 505.39 716.01 491.98 703.36 480.34 690.13 470.76 676.36 463.35 662.1 458.06 647.43 454.67 632.41 452.82 617.14 452.04 613.01 437.06 608.09 422.08 602.94 407.1 598.13 392.12 594.2 377.14 591.6 362.16 590.61 347.18 591.35 332.2 604.91 319.24 618.96 307.37 633.53 296.9 648.58 288.02 664.1 280.79 680.02 275.14 704.55 269.3 712.81 267.72" stroke-dasharray="2 2" transform="rotate(85.46153846153847, 711, 400)" opacity="0.71"></path><path d="M702.08 291.49Q709.89 301.65 717.81 312.27 725.88 323.13 734.16 333.98 742.7 344.6 751.56 354.74 760.79 364.18 770.42 372.75 771.03 385.28 773.36 397.82 777.26 410.35 782.44 422.89 788.52 435.42 795.07 447.96 800.59 468.54 791.09 479 782.2 480.44 772.89 481.1 763.15 481.25 753 481.19 742.43 481.21 731.47 481.62 720.41 470.91 708.99 461.26 697.27 452.83 685.27 445.72 673.04 439.97 660.62 435.53 648.07 432.31 635.44 430.13 631.4 418.32 627.03 406.5 622.66 394.69 618.61 382.87 615.16 371.05 612.56 359.24 611 347.42 610.6 335.6 620.83 326.51 631.4 318.42 642.31 311.4 653.57 305.48 665.19 300.64 677.15 296.78 695.77 292.64 702.08 291.49" stroke-dasharray="4 0" transform="rotate(89.34615384615384, 711, 400)" opacity="0.46"></path><path d="M693.87 315.26Q700.35 322.96 706.99 330.95 713.8 339.15 720.81 347.45 728.02 355.76 735.45 363.95 743.11 371.92 751.03 379.59 752.56 388.91 754.96 398.23 758.13 407.55 761.96 416.87 766.27 426.19 770.9 435.51 768.84 453.41 756.29 456.92 743.01 457.2 729.08 457.86 719.82 449.84 710.43 442.39 700.94 435.56 691.36 429.42 681.72 423.99 672.05 419.31 662.36 415.36 652.67 412.11 649.21 403.33 645.69 394.54 642.27 385.76 639.08 376.97 636.26 368.19 633.91 359.41 635.16 343.53 645.54 331.68 660.92 324.35 676.91 318.74 689.57 316.03 693.87 315.26" stroke-dasharray="3 4" transform="rotate(93.23076923076924, 711, 400)" opacity="0.88"></path><path d="M690.51 339.03Q700.57 349.53 711.02 360.53 721.88 371.78 733.16 383.03 736.74 395.28 741.48 407.54 738.05 429.76 721.56 434.09 708.4 423.68 695.23 414.26 682.09 406 669.04 398.97 664.12 387.29 659.56 375.6 658.71 355.69 671.01 343.78 685.55 340.02 690.51 339.03" stroke-dasharray="2 0" transform="rotate(97.11538461538461, 711, 400)" opacity="0.34"></path></g></svg>