<?xml version="1.0" encoding="UTF-8"?>
<svg width="208px" height="218px" viewBox="0 0 208 218" version="1.1" xmlns="http://www.w3.org/2000/svg" xmlns:xlink="http://www.w3.org/1999/xlink">
    <title>Group</title>
    <g id="Page-1" stroke="none" stroke-width="1" fill="none" fill-rule="evenodd">
        <g id="Group" transform="translate(0.9896, 0.983)">
            <path d="M58.5807989,187.647023 C47.3555269,189.054923 40.2121105,189.758873 37.1505497,189.758873 C32.5582085,189.758873 30.1785366,189.35613 29.2903995,189.134778 C28.4022623,188.913427 23.5355174,186.927254 21.4072621,184.528629 C19.2790067,182.130005 19.2337928,180.459534 19.5952647,178.380274 C19.9567366,176.301013 21.7200613,171.110239 22.1272222,167.686713 C22.6979068,162.888231 21.8817424,159.874837 21.7824078,159.527315 C21.5094303,158.572304 20.4917604,157.606707 20.1919256,157.356145 C17.8886291,155.431359 16.0862042,154.099152 15.8686474,152.505417 C15.6761715,151.095415 16.5076235,149.878656 16.6619112,149.683214 C17.1527775,149.061413 18.329449,148.084581 20.1919256,146.752717 C14.8508639,145.235212 12.1963166,143.58749 12.2282838,141.809552 C12.2692794,139.529476 14.7399661,137.279894 15.8686474,134.855737 C16.6776073,133.118271 15.3225431,129.916658 14.7860964,129.467916 C7.94677138,123.746767 4.6936802,123.056557 2.20066109,121.817334 C-2.05856761,119.70017 0.458847481,112.047801 4.7099909,109.058746 C17.7278464,99.9056603 23.943107,88.4108565 23.3557728,74.5743348 C22.588047,55.4880955 28.9484212,39.2252182 42.4368957,25.7857028 C55.9253701,12.3461874 74.4996585,3.91389384 98.159761,0.488822164 C129.941396,-2.20392528 157.454575,6.22836825 180.699299,25.7857028 C203.944022,45.3430373 211.271388,70.8651295 202.681394,102.351979 C200.663967,108.94773 197.590392,114.908631 193.460668,120.234682 C187.266083,128.223758 176.505062,142.794486 174.497991,147.312632 C170.479125,156.359561 169.482643,165.121105 171.508546,173.597264 L185.643009,209.76771 L89.2435863,216.440298 C85.231956,202.181788 82.5124365,193.28798 81.0850278,189.758873 C79.657619,186.229767 72.1562094,185.525817 58.5807989,187.647023 Z" id="Path" fill="#79A1E2"></path>
            <path d="M148.617958,147.482803 C149.256945,141.995678 150.053048,138.24247 151.006267,136.223179 C153.613691,130.699635 158.048742,127.575078 159.153315,126.673102 C164.4256,122.367842 170.565853,118.174422 173.09639,115.152464 C176.858256,110.660057 178.519771,106.358488 178.080935,102.247757 C183.785718,95.3756782 186.853843,90.2103826 187.285311,86.7518699 C187.716779,83.2933572 185.870722,78.6629401 181.747139,72.8606185 C181.067906,61.5169906 179.845838,54.0779874 178.080935,50.543609 C176.316033,47.0092306 172.578835,44.5168527 166.869343,43.0664755 C162.684477,35.8497785 158.759788,31.3065766 155.095275,29.43687 C151.430762,27.5671634 145.505808,27.0346022 137.320414,27.8391865 C128.931733,23.253009 122.475693,20.9599203 117.952294,20.9599203 C113.428894,20.9599203 109.607641,22.9717712 106.488535,26.9954731 C98.6003942,24.3554191 92.4812074,23.5344575 88.1309747,24.5325884 C83.7807421,25.5307192 80.0386993,28.3414119 76.9048465,32.9646664 C67.6491503,33.9637165 61.8906219,35.2915381 59.6292616,36.9481313 C50.8740841,43.3618668 51.6246783,51.4840298 51.6246783,51.4840298 C51.6246783,51.4840298 43.9054288,55.0089473 40.1535998,62.0950755 C36.1368845,69.6814979 36.1915309,81.067114 40.1535998,87.6851498 C45.9562126,97.3775354 58.5811906,100.123192 78.0285337,95.9221182 C83.5867368,98.2309039 87.8855672,99.5138539 90.9250249,99.7709681 C95.4842114,100.156639 98.4942696,97.8964708 104.157105,98.8583672 C109.819941,99.8202637 113.327441,102.398903 116.856414,105.280701 C120.385387,108.1625 122.044462,109.128919 122.931783,114.298007 C123.52333,117.744065 123.52333,128.805664 122.931783,147.482803 L148.617958,147.482803 Z" id="Path-2" fill="#FFFFFF"></path>
            <circle id="Oval" fill="#79A1E2" cx="75.0103927" cy="70.0170148" r="5"></circle>
            <circle id="Oval" fill="#79A1E2" cx="93.0103927" cy="51.0170148" r="5"></circle>
            <circle id="Oval" fill="#79A1E2" cx="106.010393" cy="36.0170148" r="5"></circle>
            <circle id="Oval" fill="#79A1E2" cx="106.010393" cy="70.0170148" r="5"></circle>
            <circle id="Oval" fill="#79A1E2" cx="87.0103927" cy="93.0170148" r="5"></circle>
            <circle id="Oval" fill="#79A1E2" cx="128.010393" cy="85.0170148" r="5"></circle>
            <circle id="Oval" fill="#79A1E2" cx="143.010393" cy="98.0170148" r="5"></circle>
            <circle id="Oval" fill="#79A1E2" cx="158.010393" cy="113.017015" r="5"></circle>
            <circle id="Oval" fill="#79A1E2" cx="135.010393" cy="49.0170148" r="5"></circle>
            <polygon id="Path-3" fill="#79A1E2" points="126.510393 87.5170148 129.510393 87.5170148 129.510393 95.5170148 161.900553 126.183018 159.510393 127.517015 126.510393 96.5170148"></polygon>
            <polygon id="Path-4" fill="#79A1E2" points="88.5103927 89.5170148 93.9045403 84.0170148 109.010393 84.0170148 117.064856 74.1258771 134.510393 74.1258771 138.550778 78.6503593 138.550778 90.9540085 141.510393 94.0170148 139.313073 95.7328517 135.881643 92.1314542 135.881643 79.6241124 133.318074 76.8763562 118.544441 76.8763562 110.510393 86.7288619 95.1694165 86.7288619 90.5103927 91.5170148"></polygon>
            <path d="M108.510393,68.5170148 L135.510393,68.5170148 L144.510393,77.5170148 L144.510393,84.5170148 L159.510393,97.5170148 C159.510393,105.517015 159.510393,109.517015 159.510393,109.517015 C159.510393,109.517015 158.510393,109.517015 156.510393,109.517015 L156.510393,98.5170148 L141.510393,85.5170148 L141.510393,78.5170148 L134.510393,71.5170148 L108.510393,71.5170148 L108.510393,68.5170148 Z" id="Path-5" fill="#79A1E2"></path>
            <polygon id="Path-6" fill="#79A1E2" points="134.510393 51.5170148 137.082889 49.5170148 153.510393 65.5170148 182.510393 65.5170148 182.510393 68.5170148 151.510393 68.5170148"></polygon>
            <polygon id="Path-7" fill="#79A1E2" points="106.510393 38.5170148 108.510393 36.5170148 133.510393 62.5170148 138.510393 62.5170148 148.510393 72.5170148 163.510393 72.5170148 168.510393 76.5170148 185.510393 76.5170148 187.510393 79.5170148 167.510393 79.5170148 162.510393 75.5170148 147.510393 75.5170148 137.510393 65.5170148 132.510393 65.5170148"></polygon>
        </g>
    </g>
</svg>