<svg xmlns="http://www.w3.org/2000/svg" version="1.1" xmlns:xlink="http://www.w3.org/1999/xlink" xmlns:svgjs="http://svgjs.dev/svgjs" viewBox="0 0 1422 800"><defs><linearGradient x1="50%" y1="0%" x2="50%" y2="100%" id="oooscillate-grad"><stop stop-color="hsl(230, 55%, 50%)" stop-opacity="1" offset="0%"></stop><stop stop-color="hsl(230, 55%, 70%)" stop-opacity="1" offset="100%"></stop></linearGradient></defs><g stroke-width="2.5" stroke="url(#oooscillate-grad)" fill="none" stroke-linecap="round"><path d="M 0 828 Q 355.5 -20 711 400 Q 1066.5 820 1422 828" stroke-dasharray="12 11" opacity="0.05"></path><path d="M 0 805 Q 355.5 -20 711 400 Q 1066.5 820 1422 805" stroke-dasharray="13 5" opacity="0.08"></path><path d="M 0 782 Q 355.5 -20 711 400 Q 1066.5 820 1422 782" stroke-dasharray="10 16" opacity="0.10"></path><path d="M 0 759 Q 355.5 -20 711 400 Q 1066.5 820 1422 759" stroke-dasharray="15 3" opacity="0.13"></path><path d="M 0 736 Q 355.5 -20 711 400 Q 1066.5 820 1422 736" stroke-dasharray="14 17" opacity="0.16"></path><path d="M 0 713 Q 355.5 -20 711 400 Q 1066.5 820 1422 713" stroke-dasharray="13 11" opacity="0.19"></path><path d="M 0 690 Q 355.5 -20 711 400 Q 1066.5 820 1422 690" stroke-dasharray="15 16" opacity="0.21"></path><path d="M 0 667 Q 355.5 -20 711 400 Q 1066.5 820 1422 667" stroke-dasharray="16 5" opacity="0.24"></path><path d="M 0 644 Q 355.5 -20 711 400 Q 1066.5 820 1422 644" stroke-dasharray="17 4" opacity="0.27"></path><path d="M 0 621 Q 355.5 -20 711 400 Q 1066.5 820 1422 621" stroke-dasharray="4 7" opacity="0.29"></path><path d="M 0 598 Q 355.5 -20 711 400 Q 1066.5 820 1422 598" stroke-dasharray="9 15" opacity="0.32"></path><path d="M 0 575 Q 355.5 -20 711 400 Q 1066.5 820 1422 575" stroke-dasharray="5 13" opacity="0.35"></path><path d="M 0 552 Q 355.5 -20 711 400 Q 1066.5 820 1422 552" stroke-dasharray="3 9" opacity="0.38"></path><path d="M 0 529 Q 355.5 -20 711 400 Q 1066.5 820 1422 529" stroke-dasharray="5 13" opacity="0.40"></path><path d="M 0 506 Q 355.5 -20 711 400 Q 1066.5 820 1422 506" stroke-dasharray="2 0" opacity="0.43"></path><path d="M 0 483 Q 355.5 -20 711 400 Q 1066.5 820 1422 483" stroke-dasharray="13 12" opacity="0.46"></path><path d="M 0 460 Q 355.5 -20 711 400 Q 1066.5 820 1422 460" stroke-dasharray="5 16" opacity="0.48"></path><path d="M 0 437 Q 355.5 -20 711 400 Q 1066.5 820 1422 437" stroke-dasharray="3 10" opacity="0.51"></path><path d="M 0 414 Q 355.5 -20 711 400 Q 1066.5 820 1422 414" stroke-dasharray="2 16" opacity="0.54"></path><path d="M 0 391 Q 355.5 -20 711 400 Q 1066.5 820 1422 391" stroke-dasharray="12 17" opacity="0.57"></path><path d="M 0 368 Q 355.5 -20 711 400 Q 1066.5 820 1422 368" stroke-dasharray="5 14" opacity="0.59"></path><path d="M 0 345 Q 355.5 -20 711 400 Q 1066.5 820 1422 345" stroke-dasharray="16 12" opacity="0.62"></path><path d="M 0 322 Q 355.5 -20 711 400 Q 1066.5 820 1422 322" stroke-dasharray="3 7" opacity="0.65"></path><path d="M 0 299 Q 355.5 -20 711 400 Q 1066.5 820 1422 299" stroke-dasharray="6 17" opacity="0.67"></path><path d="M 0 276 Q 355.5 -20 711 400 Q 1066.5 820 1422 276" stroke-dasharray="1 6" opacity="0.70"></path><path d="M 0 253 Q 355.5 -20 711 400 Q 1066.5 820 1422 253" stroke-dasharray="8 15" opacity="0.73"></path><path d="M 0 230 Q 355.5 -20 711 400 Q 1066.5 820 1422 230" stroke-dasharray="5 6" opacity="0.76"></path><path d="M 0 207 Q 355.5 -20 711 400 Q 1066.5 820 1422 207" stroke-dasharray="17 12" opacity="0.78"></path><path d="M 0 184 Q 355.5 -20 711 400 Q 1066.5 820 1422 184" stroke-dasharray="10 5" opacity="0.81"></path><path d="M 0 161 Q 355.5 -20 711 400 Q 1066.5 820 1422 161" stroke-dasharray="11 6" opacity="0.84"></path><path d="M 0 138 Q 355.5 -20 711 400 Q 1066.5 820 1422 138" stroke-dasharray="9 3" opacity="0.86"></path><path d="M 0 115 Q 355.5 -20 711 400 Q 1066.5 820 1422 115" stroke-dasharray="2 2" opacity="0.89"></path><path d="M 0 92 Q 355.5 -20 711 400 Q 1066.5 820 1422 92" stroke-dasharray="17 9" opacity="0.92"></path><path d="M 0 69 Q 355.5 -20 711 400 Q 1066.5 820 1422 69" stroke-dasharray="9 7" opacity="0.95"></path><path d="M 0 46 Q 355.5 -20 711 400 Q 1066.5 820 1422 46" stroke-dasharray="7 10" opacity="0.97"></path></g></svg>